%TF.GenerationSoftware,KiCad,Pcbnew,(6.0.1-0)*%
%TF.CreationDate,2022-06-02T12:12:10+03:00*%
%TF.ProjectId,VoltageRegulator,566f6c74-6167-4655-9265-67756c61746f,rev?*%
%TF.SameCoordinates,Original*%
%TF.FileFunction,Soldermask,Top*%
%TF.FilePolarity,Negative*%
%FSLAX46Y46*%
G04 Gerber Fmt 4.6, Leading zero omitted, Abs format (unit mm)*
G04 Created by KiCad (PCBNEW (6.0.1-0)) date 2022-06-02 12:12:10*
%MOMM*%
%LPD*%
G01*
G04 APERTURE LIST*
G04 Aperture macros list*
%AMRoundRect*
0 Rectangle with rounded corners*
0 $1 Rounding radius*
0 $2 $3 $4 $5 $6 $7 $8 $9 X,Y pos of 4 corners*
0 Add a 4 corners polygon primitive as box body*
4,1,4,$2,$3,$4,$5,$6,$7,$8,$9,$2,$3,0*
0 Add four circle primitives for the rounded corners*
1,1,$1+$1,$2,$3*
1,1,$1+$1,$4,$5*
1,1,$1+$1,$6,$7*
1,1,$1+$1,$8,$9*
0 Add four rect primitives between the rounded corners*
20,1,$1+$1,$2,$3,$4,$5,0*
20,1,$1+$1,$4,$5,$6,$7,0*
20,1,$1+$1,$6,$7,$8,$9,0*
20,1,$1+$1,$8,$9,$2,$3,0*%
G04 Aperture macros list end*
%TA.AperFunction,Profile*%
%ADD10C,0.100000*%
%TD*%
%ADD11R,1.650000X1.650000*%
%ADD12C,1.650000*%
%ADD13C,2.400000*%
%ADD14O,2.400000X2.400000*%
%ADD15RoundRect,0.250000X-0.475000X0.250000X-0.475000X-0.250000X0.475000X-0.250000X0.475000X0.250000X0*%
%ADD16RoundRect,0.250000X-0.650000X0.325000X-0.650000X-0.325000X0.650000X-0.325000X0.650000X0.325000X0*%
%ADD17C,2.000000*%
%ADD18R,1.500000X0.650000*%
%ADD19R,1.350000X1.800000*%
%ADD20RoundRect,0.250000X0.262500X0.450000X-0.262500X0.450000X-0.262500X-0.450000X0.262500X-0.450000X0*%
%ADD21R,1.150000X3.600000*%
%ADD22R,1.300000X1.700000*%
%ADD23RoundRect,0.250000X0.250000X0.475000X-0.250000X0.475000X-0.250000X-0.475000X0.250000X-0.475000X0*%
%ADD24RoundRect,0.250000X0.450000X-0.262500X0.450000X0.262500X-0.450000X0.262500X-0.450000X-0.262500X0*%
%ADD25RoundRect,0.250000X-0.450000X0.262500X-0.450000X-0.262500X0.450000X-0.262500X0.450000X0.262500X0*%
%ADD26C,4.000000*%
%ADD27R,2.600000X8.200000*%
%ADD28R,1.600000X1.600000*%
%ADD29C,1.600000*%
%ADD30RoundRect,0.250000X-0.262500X-0.450000X0.262500X-0.450000X0.262500X0.450000X-0.262500X0.450000X0*%
%ADD31R,2.500000X1.800000*%
%ADD32RoundRect,0.062500X-0.062500X0.375000X-0.062500X-0.375000X0.062500X-0.375000X0.062500X0.375000X0*%
%ADD33RoundRect,0.062500X-0.375000X0.062500X-0.375000X-0.062500X0.375000X-0.062500X0.375000X0.062500X0*%
%ADD34R,3.100000X3.100000*%
%ADD35RoundRect,0.250000X-0.250000X-0.475000X0.250000X-0.475000X0.250000X0.475000X-0.250000X0.475000X0*%
%ADD36C,1.700000*%
%ADD37R,3.000000X3.000000*%
%ADD38C,3.000000*%
%ADD39RoundRect,0.250000X0.475000X-0.250000X0.475000X0.250000X-0.475000X0.250000X-0.475000X-0.250000X0*%
%ADD40R,2.000000X2.000000*%
%ADD41R,3.300000X2.500000*%
%ADD42RoundRect,0.250000X0.650000X-0.325000X0.650000X0.325000X-0.650000X0.325000X-0.650000X-0.325000X0*%
%ADD43RoundRect,0.250000X-0.625000X0.375000X-0.625000X-0.375000X0.625000X-0.375000X0.625000X0.375000X0*%
%ADD44C,1.778000*%
G04 APERTURE END LIST*
D10*
X41505308Y-38806895D02*
X-19874692Y-38806895D01*
X-19874692Y-38806895D02*
X-19874692Y15193105D01*
X-19874692Y15193105D02*
X41505308Y15193105D01*
X41505308Y15193105D02*
X41505308Y-38806895D01*
D11*
%TO.C,J7*%
X38205308Y11963105D03*
D12*
X38205308Y9423105D03*
%TD*%
D13*
%TO.C,R10*%
X32646208Y2014805D03*
D14*
X17406208Y2014805D03*
%TD*%
D15*
%TO.C,C23*%
X6639908Y-22971195D03*
X6639908Y-24871195D03*
%TD*%
D16*
%TO.C,C28*%
X24522408Y-8214595D03*
X24522408Y-11164595D03*
%TD*%
D17*
%TO.C,SW2*%
X4466108Y-33891395D03*
X-2033892Y-33891395D03*
X4466108Y-29391395D03*
X-2033892Y-29391395D03*
%TD*%
D18*
%TO.C,IC1*%
X16725708Y-13409595D03*
X16725708Y-12139595D03*
X16725708Y-10869595D03*
X16725708Y-9599595D03*
X11325708Y-9599595D03*
X11325708Y-10869595D03*
X11325708Y-12139595D03*
X11325708Y-13409595D03*
D19*
X14700708Y-12404595D03*
X14700708Y-10604595D03*
X13350708Y-10604595D03*
X13350708Y-12404595D03*
%TD*%
D20*
%TO.C,R22*%
X22062208Y-3996395D03*
X20237208Y-3996395D03*
%TD*%
D21*
%TO.C,L2*%
X12483908Y-32951695D03*
X15433908Y-32951695D03*
%TD*%
D22*
%TO.C,D4*%
X25544208Y-4020095D03*
X29044208Y-4020095D03*
%TD*%
D23*
%TO.C,C15*%
X7234408Y-11838495D03*
X5334408Y-11838495D03*
%TD*%
D15*
%TO.C,C9*%
X20630208Y-11380195D03*
X20630208Y-13280195D03*
%TD*%
D24*
%TO.C,R4*%
X10856608Y-5294895D03*
X10856608Y-3469895D03*
%TD*%
D25*
%TO.C,R6*%
X5587908Y-3469895D03*
X5587908Y-5294895D03*
%TD*%
D11*
%TO.C,J8*%
X38205308Y-32936895D03*
D12*
X38205308Y-35476895D03*
%TD*%
D11*
%TO.C,J1*%
X37037708Y-15337195D03*
D12*
X37037708Y-12797195D03*
X37037708Y-10257195D03*
X37037708Y-7717195D03*
X37037708Y-5177195D03*
%TD*%
%TO.C,SW3*%
X-11754992Y-19773695D03*
X-6754992Y-19773695D03*
X-9254992Y-19773695D03*
D26*
X-14954992Y-12273695D03*
X-3554992Y-12273695D03*
D12*
X-11754992Y-5273695D03*
X-6754992Y-5273695D03*
%TD*%
D27*
%TO.C,L1*%
X12899708Y4047705D03*
X7299708Y4047705D03*
%TD*%
D28*
%TO.C,C31*%
X29177608Y-31386095D03*
D29*
X29177608Y-33886095D03*
%TD*%
D24*
%TO.C,R19*%
X32497108Y-28683795D03*
X32497108Y-26858795D03*
%TD*%
D30*
%TO.C,R11*%
X5391908Y-9020295D03*
X7216908Y-9020295D03*
%TD*%
D15*
%TO.C,C21*%
X18247108Y-32600995D03*
X18247108Y-34500995D03*
%TD*%
D30*
%TO.C,R13*%
X13543408Y-21455695D03*
X15368408Y-21455695D03*
%TD*%
D31*
%TO.C,D1*%
X7715808Y10904305D03*
X11715808Y10904305D03*
%TD*%
D32*
%TO.C,U5*%
X25295008Y-21203795D03*
X24795008Y-21203795D03*
X24295008Y-21203795D03*
X23795008Y-21203795D03*
X23295008Y-21203795D03*
X22795008Y-21203795D03*
X22295008Y-21203795D03*
X21795008Y-21203795D03*
D33*
X21107508Y-21891295D03*
X21107508Y-22391295D03*
X21107508Y-22891295D03*
X21107508Y-23391295D03*
X21107508Y-23891295D03*
X21107508Y-24391295D03*
X21107508Y-24891295D03*
X21107508Y-25391295D03*
D32*
X21795008Y-26078795D03*
X22295008Y-26078795D03*
X22795008Y-26078795D03*
X23295008Y-26078795D03*
X23795008Y-26078795D03*
X24295008Y-26078795D03*
X24795008Y-26078795D03*
X25295008Y-26078795D03*
D33*
X25982508Y-25391295D03*
X25982508Y-24891295D03*
X25982508Y-24391295D03*
X25982508Y-23891295D03*
X25982508Y-23391295D03*
X25982508Y-22891295D03*
X25982508Y-22391295D03*
X25982508Y-21891295D03*
D34*
X23545008Y-23641295D03*
%TD*%
D35*
%TO.C,C14*%
X331926Y10217461D03*
X2231926Y10217461D03*
%TD*%
D17*
%TO.C,SW1*%
X-8216892Y-33891395D03*
X-14716892Y-33891395D03*
X-8216892Y-29391395D03*
X-14716892Y-29391395D03*
%TD*%
D11*
%TO.C,J6*%
X35705308Y-32936895D03*
D12*
X35705308Y-35476895D03*
%TD*%
D36*
%TO.C,Y1*%
X29944108Y-9413695D03*
X29944108Y-14413695D03*
%TD*%
D37*
%TO.C,J4*%
X25485108Y11048805D03*
D38*
X30565108Y11048805D03*
%TD*%
D11*
%TO.C,J5*%
X35705308Y11963105D03*
D12*
X35705308Y9423105D03*
%TD*%
D39*
%TO.C,C25*%
X32457108Y-24400195D03*
X32457108Y-22500195D03*
%TD*%
D25*
%TO.C,R5*%
X8222308Y-3469895D03*
X8222308Y-5294895D03*
%TD*%
D40*
%TO.C,SW4*%
X36955808Y-26975795D03*
X36955808Y-20475795D03*
%TD*%
D25*
%TO.C,R18*%
X32417108Y-18216595D03*
X32417108Y-20041595D03*
%TD*%
D35*
%TO.C,C18*%
X13567808Y-24753595D03*
X15467808Y-24753595D03*
%TD*%
D41*
%TO.C,D2*%
X-5342492Y8993105D03*
X-5342492Y2193105D03*
%TD*%
D25*
%TO.C,R12*%
X10059808Y-23031895D03*
X10059808Y-24856895D03*
%TD*%
%TO.C,R9*%
X10059808Y-19034295D03*
X10059808Y-20859295D03*
%TD*%
D28*
%TO.C,C30*%
X18564708Y10916805D03*
D29*
X18564708Y8416805D03*
%TD*%
D24*
%TO.C,R21*%
X13491008Y-5294895D03*
X13491008Y-3469895D03*
%TD*%
D35*
%TO.C,C5*%
X36046708Y663805D03*
X37946708Y663805D03*
%TD*%
D42*
%TO.C,C27*%
X24527508Y-15901195D03*
X24527508Y-12951195D03*
%TD*%
D28*
%TO.C,C13*%
X1790108Y3078605D03*
D29*
X1790108Y5578605D03*
%TD*%
D43*
%TO.C,C32*%
X21464708Y-31585095D03*
X21464708Y-34385095D03*
%TD*%
D35*
%TO.C,C1*%
X36046708Y3462305D03*
X37946708Y3462305D03*
%TD*%
D15*
%TO.C,C17*%
X6614608Y-19025895D03*
X6614608Y-20925895D03*
%TD*%
D30*
%TO.C,R14*%
X13584608Y-26794095D03*
X15409608Y-26794095D03*
%TD*%
D35*
%TO.C,C16*%
X15141908Y-16266595D03*
X17041908Y-16266595D03*
%TD*%
D44*
%TO.C,S1*%
X-16086592Y1932005D03*
X-11006592Y1932005D03*
X-11006592Y9552005D03*
X-13546592Y9552005D03*
X-16086592Y9552005D03*
%TD*%
M02*
