%TF.GenerationSoftware,KiCad,Pcbnew,(6.0.1-0)*%
%TF.CreationDate,2022-06-02T12:12:10+03:00*%
%TF.ProjectId,VoltageRegulator,566f6c74-6167-4655-9265-67756c61746f,rev?*%
%TF.SameCoordinates,Original*%
%TF.FileFunction,Legend,Bot*%
%TF.FilePolarity,Positive*%
%FSLAX46Y46*%
G04 Gerber Fmt 4.6, Leading zero omitted, Abs format (unit mm)*
G04 Created by KiCad (PCBNEW (6.0.1-0)) date 2022-06-02 12:12:10*
%MOMM*%
%LPD*%
G01*
G04 APERTURE LIST*
%TA.AperFunction,Profile*%
%ADD10C,0.100000*%
%TD*%
%ADD11C,0.150000*%
%ADD12C,0.120000*%
G04 APERTURE END LIST*
D10*
X41505308Y-38806895D02*
X-19874692Y-38806895D01*
X-19874692Y-38806895D02*
X-19874692Y15193105D01*
X-19874692Y15193105D02*
X41505308Y15193105D01*
X41505308Y15193105D02*
X41505308Y-38806895D01*
D11*
%TO.C,R3*%
X11409774Y-22162475D02*
X11743108Y-21686285D01*
X11981203Y-22162475D02*
X11981203Y-21162475D01*
X11600250Y-21162475D01*
X11505012Y-21210095D01*
X11457393Y-21257714D01*
X11409774Y-21352952D01*
X11409774Y-21495809D01*
X11457393Y-21591047D01*
X11505012Y-21638666D01*
X11600250Y-21686285D01*
X11981203Y-21686285D01*
X11076441Y-21162475D02*
X10457393Y-21162475D01*
X10790727Y-21543428D01*
X10647869Y-21543428D01*
X10552631Y-21591047D01*
X10505012Y-21638666D01*
X10457393Y-21733904D01*
X10457393Y-21971999D01*
X10505012Y-22067237D01*
X10552631Y-22114856D01*
X10647869Y-22162475D01*
X10933584Y-22162475D01*
X11028822Y-22114856D01*
X11076441Y-22067237D01*
%TO.C,U1*%
X17667512Y-14023775D02*
X17667512Y-14833299D01*
X17619893Y-14928537D01*
X17572274Y-14976156D01*
X17477036Y-15023775D01*
X17286560Y-15023775D01*
X17191322Y-14976156D01*
X17143703Y-14928537D01*
X17096084Y-14833299D01*
X17096084Y-14023775D01*
X16096084Y-15023775D02*
X16667512Y-15023775D01*
X16381798Y-15023775D02*
X16381798Y-14023775D01*
X16477036Y-14166633D01*
X16572274Y-14261871D01*
X16667512Y-14309490D01*
%TO.C,C11*%
X37529165Y-18192537D02*
X37576784Y-18240156D01*
X37719641Y-18287775D01*
X37814879Y-18287775D01*
X37957736Y-18240156D01*
X38052974Y-18144918D01*
X38100593Y-18049680D01*
X38148212Y-17859204D01*
X38148212Y-17716347D01*
X38100593Y-17525871D01*
X38052974Y-17430633D01*
X37957736Y-17335395D01*
X37814879Y-17287775D01*
X37719641Y-17287775D01*
X37576784Y-17335395D01*
X37529165Y-17383014D01*
X36576784Y-18287775D02*
X37148212Y-18287775D01*
X36862498Y-18287775D02*
X36862498Y-17287775D01*
X36957736Y-17430633D01*
X37052974Y-17525871D01*
X37148212Y-17573490D01*
X35624403Y-18287775D02*
X36195831Y-18287775D01*
X35910117Y-18287775D02*
X35910117Y-17287775D01*
X36005355Y-17430633D01*
X36100593Y-17525871D01*
X36195831Y-17573490D01*
%TO.C,J2*%
X-8418658Y6953124D02*
X-8418658Y6238838D01*
X-8371039Y6095981D01*
X-8275801Y6000743D01*
X-8132944Y5953124D01*
X-8037706Y5953124D01*
X-8847230Y6857885D02*
X-8894849Y6905505D01*
X-8990087Y6953124D01*
X-9228182Y6953124D01*
X-9323420Y6905505D01*
X-9371039Y6857885D01*
X-9418658Y6762647D01*
X-9418658Y6667409D01*
X-9371039Y6524552D01*
X-8799611Y5953124D01*
X-9418658Y5953124D01*
%TO.C,C12*%
X8814250Y-20143637D02*
X8861869Y-20096018D01*
X8909488Y-19953161D01*
X8909488Y-19857923D01*
X8861869Y-19715066D01*
X8766631Y-19619828D01*
X8671393Y-19572209D01*
X8480917Y-19524590D01*
X8338060Y-19524590D01*
X8147584Y-19572209D01*
X8052346Y-19619828D01*
X7957108Y-19715066D01*
X7909488Y-19857923D01*
X7909488Y-19953161D01*
X7957108Y-20096018D01*
X8004727Y-20143637D01*
X8909488Y-21096018D02*
X8909488Y-20524590D01*
X8909488Y-20810304D02*
X7909488Y-20810304D01*
X8052346Y-20715066D01*
X8147584Y-20619828D01*
X8195203Y-20524590D01*
X8004727Y-21476971D02*
X7957108Y-21524590D01*
X7909488Y-21619828D01*
X7909488Y-21857923D01*
X7957108Y-21953161D01*
X8004727Y-22000780D01*
X8099965Y-22048399D01*
X8195203Y-22048399D01*
X8338060Y-22000780D01*
X8909488Y-21429352D01*
X8909488Y-22048399D01*
%TO.C,R17*%
X-1888711Y-24329137D02*
X-2364901Y-23995804D01*
X-1888711Y-23757709D02*
X-2888711Y-23757709D01*
X-2888711Y-24138661D01*
X-2841092Y-24233899D01*
X-2793472Y-24281518D01*
X-2698234Y-24329137D01*
X-2555377Y-24329137D01*
X-2460139Y-24281518D01*
X-2412520Y-24233899D01*
X-2364901Y-24138661D01*
X-2364901Y-23757709D01*
X-1888711Y-25281518D02*
X-1888711Y-24710090D01*
X-1888711Y-24995804D02*
X-2888711Y-24995804D01*
X-2745853Y-24900566D01*
X-2650615Y-24805328D01*
X-2602996Y-24710090D01*
X-2888711Y-25614852D02*
X-2888711Y-26281518D01*
X-1888711Y-25852947D01*
%TO.C,C26*%
X-345849Y-18353437D02*
X-298230Y-18305818D01*
X-250611Y-18162961D01*
X-250611Y-18067723D01*
X-298230Y-17924866D01*
X-393468Y-17829628D01*
X-488706Y-17782009D01*
X-679182Y-17734390D01*
X-822039Y-17734390D01*
X-1012515Y-17782009D01*
X-1107753Y-17829628D01*
X-1202992Y-17924866D01*
X-1250611Y-18067723D01*
X-1250611Y-18162961D01*
X-1202992Y-18305818D01*
X-1155372Y-18353437D01*
X-1155372Y-18734390D02*
X-1202992Y-18782009D01*
X-1250611Y-18877247D01*
X-1250611Y-19115342D01*
X-1202992Y-19210580D01*
X-1155372Y-19258199D01*
X-1060134Y-19305818D01*
X-964896Y-19305818D01*
X-822039Y-19258199D01*
X-250611Y-18686771D01*
X-250611Y-19305818D01*
X-1250611Y-20162961D02*
X-1250611Y-19972485D01*
X-1202992Y-19877247D01*
X-1155372Y-19829628D01*
X-1012515Y-19734390D01*
X-822039Y-19686771D01*
X-441087Y-19686771D01*
X-345849Y-19734390D01*
X-298230Y-19782009D01*
X-250611Y-19877247D01*
X-250611Y-20067723D01*
X-298230Y-20162961D01*
X-345849Y-20210580D01*
X-441087Y-20258199D01*
X-679182Y-20258199D01*
X-774420Y-20210580D01*
X-822039Y-20162961D01*
X-869658Y-20067723D01*
X-869658Y-19877247D01*
X-822039Y-19782009D01*
X-774420Y-19734390D01*
X-679182Y-19686771D01*
%TO.C,C20*%
X-7624449Y-23733637D02*
X-7576830Y-23686018D01*
X-7529211Y-23543161D01*
X-7529211Y-23447923D01*
X-7576830Y-23305066D01*
X-7672068Y-23209828D01*
X-7767306Y-23162209D01*
X-7957782Y-23114590D01*
X-8100639Y-23114590D01*
X-8291115Y-23162209D01*
X-8386353Y-23209828D01*
X-8481592Y-23305066D01*
X-8529211Y-23447923D01*
X-8529211Y-23543161D01*
X-8481592Y-23686018D01*
X-8433972Y-23733637D01*
X-8433972Y-24114590D02*
X-8481592Y-24162209D01*
X-8529211Y-24257447D01*
X-8529211Y-24495542D01*
X-8481592Y-24590780D01*
X-8433972Y-24638399D01*
X-8338734Y-24686018D01*
X-8243496Y-24686018D01*
X-8100639Y-24638399D01*
X-7529211Y-24066971D01*
X-7529211Y-24686018D01*
X-8529211Y-25305066D02*
X-8529211Y-25400304D01*
X-8481592Y-25495542D01*
X-8433972Y-25543161D01*
X-8338734Y-25590780D01*
X-8148258Y-25638399D01*
X-7910163Y-25638399D01*
X-7719687Y-25590780D01*
X-7624449Y-25543161D01*
X-7576830Y-25495542D01*
X-7529211Y-25400304D01*
X-7529211Y-25305066D01*
X-7576830Y-25209828D01*
X-7624449Y-25162209D01*
X-7719687Y-25114590D01*
X-7910163Y-25066971D01*
X-8148258Y-25066971D01*
X-8338734Y-25114590D01*
X-8433972Y-25162209D01*
X-8481592Y-25209828D01*
X-8529211Y-25305066D01*
%TO.C,Q3*%
X11534646Y-22256014D02*
X11629884Y-22208395D01*
X11725122Y-22113156D01*
X11867979Y-21970299D01*
X11963217Y-21922680D01*
X12058455Y-21922680D01*
X12010836Y-22160775D02*
X12106074Y-22113156D01*
X12201312Y-22017918D01*
X12248931Y-21827442D01*
X12248931Y-21494109D01*
X12201312Y-21303633D01*
X12106074Y-21208395D01*
X12010836Y-21160775D01*
X11820360Y-21160775D01*
X11725122Y-21208395D01*
X11629884Y-21303633D01*
X11582265Y-21494109D01*
X11582265Y-21827442D01*
X11629884Y-22017918D01*
X11725122Y-22113156D01*
X11820360Y-22160775D01*
X12010836Y-22160775D01*
X11248931Y-21160775D02*
X10629884Y-21160775D01*
X10963217Y-21541728D01*
X10820360Y-21541728D01*
X10725122Y-21589347D01*
X10677503Y-21636966D01*
X10629884Y-21732204D01*
X10629884Y-21970299D01*
X10677503Y-22065537D01*
X10725122Y-22113156D01*
X10820360Y-22160775D01*
X11106074Y-22160775D01*
X11201312Y-22113156D01*
X11248931Y-22065537D01*
%TO.C,C22*%
X4677250Y-23709137D02*
X4724869Y-23661518D01*
X4772488Y-23518661D01*
X4772488Y-23423423D01*
X4724869Y-23280566D01*
X4629631Y-23185328D01*
X4534393Y-23137709D01*
X4343917Y-23090090D01*
X4201060Y-23090090D01*
X4010584Y-23137709D01*
X3915346Y-23185328D01*
X3820108Y-23280566D01*
X3772488Y-23423423D01*
X3772488Y-23518661D01*
X3820108Y-23661518D01*
X3867727Y-23709137D01*
X3867727Y-24090090D02*
X3820108Y-24137709D01*
X3772488Y-24232947D01*
X3772488Y-24471042D01*
X3820108Y-24566280D01*
X3867727Y-24613899D01*
X3962965Y-24661518D01*
X4058203Y-24661518D01*
X4201060Y-24613899D01*
X4772488Y-24042471D01*
X4772488Y-24661518D01*
X3867727Y-25042471D02*
X3820108Y-25090090D01*
X3772488Y-25185328D01*
X3772488Y-25423423D01*
X3820108Y-25518661D01*
X3867727Y-25566280D01*
X3962965Y-25613899D01*
X4058203Y-25613899D01*
X4201060Y-25566280D01*
X4772488Y-24994852D01*
X4772488Y-25613899D01*
%TO.C,J3*%
X-8418658Y10253124D02*
X-8418658Y9538838D01*
X-8371039Y9395981D01*
X-8275801Y9300743D01*
X-8132944Y9253124D01*
X-8037706Y9253124D01*
X-8799611Y10253124D02*
X-9418658Y10253124D01*
X-9085325Y9872171D01*
X-9228182Y9872171D01*
X-9323420Y9824552D01*
X-9371039Y9776933D01*
X-9418658Y9681695D01*
X-9418658Y9443600D01*
X-9371039Y9348362D01*
X-9323420Y9300743D01*
X-9228182Y9253124D01*
X-8942468Y9253124D01*
X-8847230Y9300743D01*
X-8799611Y9348362D01*
%TO.C,U2*%
X34949712Y-29509075D02*
X34949712Y-30318599D01*
X34902093Y-30413837D01*
X34854474Y-30461456D01*
X34759236Y-30509075D01*
X34568760Y-30509075D01*
X34473522Y-30461456D01*
X34425903Y-30413837D01*
X34378284Y-30318599D01*
X34378284Y-29509075D01*
X33949712Y-29604314D02*
X33902093Y-29556695D01*
X33806855Y-29509075D01*
X33568760Y-29509075D01*
X33473522Y-29556695D01*
X33425903Y-29604314D01*
X33378284Y-29699552D01*
X33378284Y-29794790D01*
X33425903Y-29937647D01*
X33997331Y-30509075D01*
X33378284Y-30509075D01*
%TO.C,C10*%
X25824950Y-9428537D02*
X25872569Y-9380918D01*
X25920188Y-9238061D01*
X25920188Y-9142823D01*
X25872569Y-8999966D01*
X25777331Y-8904728D01*
X25682093Y-8857109D01*
X25491617Y-8809490D01*
X25348760Y-8809490D01*
X25158284Y-8857109D01*
X25063046Y-8904728D01*
X24967808Y-8999966D01*
X24920188Y-9142823D01*
X24920188Y-9238061D01*
X24967808Y-9380918D01*
X25015427Y-9428537D01*
X25920188Y-10380918D02*
X25920188Y-9809490D01*
X25920188Y-10095204D02*
X24920188Y-10095204D01*
X25063046Y-9999966D01*
X25158284Y-9904728D01*
X25205903Y-9809490D01*
X24920188Y-10999966D02*
X24920188Y-11095204D01*
X24967808Y-11190442D01*
X25015427Y-11238061D01*
X25110665Y-11285680D01*
X25301141Y-11333299D01*
X25539236Y-11333299D01*
X25729712Y-11285680D01*
X25824950Y-11238061D01*
X25872569Y-11190442D01*
X25920188Y-11095204D01*
X25920188Y-10999966D01*
X25872569Y-10904728D01*
X25824950Y-10857109D01*
X25729712Y-10809490D01*
X25539236Y-10761871D01*
X25301141Y-10761871D01*
X25110665Y-10809490D01*
X25015427Y-10857109D01*
X24967808Y-10904728D01*
X24920188Y-10999966D01*
%TO.C,U3*%
X8842688Y-30507290D02*
X9652212Y-30507290D01*
X9747450Y-30554909D01*
X9795069Y-30602528D01*
X9842688Y-30697766D01*
X9842688Y-30888242D01*
X9795069Y-30983480D01*
X9747450Y-31031099D01*
X9652212Y-31078718D01*
X8842688Y-31078718D01*
X8842688Y-31459671D02*
X8842688Y-32078718D01*
X9223641Y-31745385D01*
X9223641Y-31888242D01*
X9271260Y-31983480D01*
X9318879Y-32031099D01*
X9414117Y-32078718D01*
X9652212Y-32078718D01*
X9747450Y-32031099D01*
X9795069Y-31983480D01*
X9842688Y-31888242D01*
X9842688Y-31602528D01*
X9795069Y-31507290D01*
X9747450Y-31459671D01*
%TO.C,Q2*%
X7959027Y-12603156D02*
X7911408Y-12507918D01*
X7816169Y-12412680D01*
X7673312Y-12269823D01*
X7625693Y-12174585D01*
X7625693Y-12079347D01*
X7863788Y-12126966D02*
X7816169Y-12031728D01*
X7720931Y-11936490D01*
X7530455Y-11888871D01*
X7197122Y-11888871D01*
X7006646Y-11936490D01*
X6911408Y-12031728D01*
X6863788Y-12126966D01*
X6863788Y-12317442D01*
X6911408Y-12412680D01*
X7006646Y-12507918D01*
X7197122Y-12555537D01*
X7530455Y-12555537D01*
X7720931Y-12507918D01*
X7816169Y-12412680D01*
X7863788Y-12317442D01*
X7863788Y-12126966D01*
X6959027Y-12936490D02*
X6911408Y-12984109D01*
X6863788Y-13079347D01*
X6863788Y-13317442D01*
X6911408Y-13412680D01*
X6959027Y-13460299D01*
X7054265Y-13507918D01*
X7149503Y-13507918D01*
X7292360Y-13460299D01*
X7863788Y-12888871D01*
X7863788Y-13507918D01*
%TO.C,C2*%
X7925450Y-7413228D02*
X7973069Y-7365609D01*
X8020688Y-7222752D01*
X8020688Y-7127514D01*
X7973069Y-6984656D01*
X7877831Y-6889418D01*
X7782593Y-6841799D01*
X7592117Y-6794180D01*
X7449260Y-6794180D01*
X7258784Y-6841799D01*
X7163546Y-6889418D01*
X7068308Y-6984656D01*
X7020688Y-7127514D01*
X7020688Y-7222752D01*
X7068308Y-7365609D01*
X7115927Y-7413228D01*
X7115927Y-7794180D02*
X7068308Y-7841799D01*
X7020688Y-7937037D01*
X7020688Y-8175133D01*
X7068308Y-8270371D01*
X7115927Y-8317990D01*
X7211165Y-8365609D01*
X7306403Y-8365609D01*
X7449260Y-8317990D01*
X8020688Y-7746561D01*
X8020688Y-8365609D01*
%TO.C,Q1*%
X24785627Y-27324756D02*
X24738008Y-27229518D01*
X24642769Y-27134280D01*
X24499912Y-26991423D01*
X24452293Y-26896185D01*
X24452293Y-26800947D01*
X24690388Y-26848566D02*
X24642769Y-26753328D01*
X24547531Y-26658090D01*
X24357055Y-26610471D01*
X24023722Y-26610471D01*
X23833246Y-26658090D01*
X23738008Y-26753328D01*
X23690388Y-26848566D01*
X23690388Y-27039042D01*
X23738008Y-27134280D01*
X23833246Y-27229518D01*
X24023722Y-27277137D01*
X24357055Y-27277137D01*
X24547531Y-27229518D01*
X24642769Y-27134280D01*
X24690388Y-27039042D01*
X24690388Y-26848566D01*
X24690388Y-28229518D02*
X24690388Y-27658090D01*
X24690388Y-27943804D02*
X23690388Y-27943804D01*
X23833246Y-27848566D01*
X23928484Y-27753328D01*
X23976103Y-27658090D01*
%TO.C,U4*%
X10391012Y4620824D02*
X10391012Y3811300D01*
X10343393Y3716062D01*
X10295774Y3668443D01*
X10200536Y3620824D01*
X10010060Y3620824D01*
X9914822Y3668443D01*
X9867203Y3716062D01*
X9819584Y3811300D01*
X9819584Y4620824D01*
X8914822Y4287490D02*
X8914822Y3620824D01*
X9152917Y4668443D02*
X9391012Y3954157D01*
X8771965Y3954157D01*
%TO.C,C8*%
X16677674Y-22681337D02*
X16725293Y-22728956D01*
X16868150Y-22776575D01*
X16963388Y-22776575D01*
X17106246Y-22728956D01*
X17201484Y-22633718D01*
X17249103Y-22538480D01*
X17296722Y-22348004D01*
X17296722Y-22205147D01*
X17249103Y-22014671D01*
X17201484Y-21919433D01*
X17106246Y-21824195D01*
X16963388Y-21776575D01*
X16868150Y-21776575D01*
X16725293Y-21824195D01*
X16677674Y-21871814D01*
X16106246Y-22205147D02*
X16201484Y-22157528D01*
X16249103Y-22109909D01*
X16296722Y-22014671D01*
X16296722Y-21967052D01*
X16249103Y-21871814D01*
X16201484Y-21824195D01*
X16106246Y-21776575D01*
X15915769Y-21776575D01*
X15820531Y-21824195D01*
X15772912Y-21871814D01*
X15725293Y-21967052D01*
X15725293Y-22014671D01*
X15772912Y-22109909D01*
X15820531Y-22157528D01*
X15915769Y-22205147D01*
X16106246Y-22205147D01*
X16201484Y-22252766D01*
X16249103Y-22300385D01*
X16296722Y-22395623D01*
X16296722Y-22586099D01*
X16249103Y-22681337D01*
X16201484Y-22728956D01*
X16106246Y-22776575D01*
X15915769Y-22776575D01*
X15820531Y-22728956D01*
X15772912Y-22681337D01*
X15725293Y-22586099D01*
X15725293Y-22395623D01*
X15772912Y-22300385D01*
X15820531Y-22252766D01*
X15915769Y-22205147D01*
%TO.C,R8*%
X21661474Y3509624D02*
X21994808Y3985814D01*
X22232903Y3509624D02*
X22232903Y4509624D01*
X21851950Y4509624D01*
X21756712Y4462005D01*
X21709093Y4414385D01*
X21661474Y4319147D01*
X21661474Y4176290D01*
X21709093Y4081052D01*
X21756712Y4033433D01*
X21851950Y3985814D01*
X22232903Y3985814D01*
X21090046Y4081052D02*
X21185284Y4128671D01*
X21232903Y4176290D01*
X21280522Y4271528D01*
X21280522Y4319147D01*
X21232903Y4414385D01*
X21185284Y4462005D01*
X21090046Y4509624D01*
X20899569Y4509624D01*
X20804331Y4462005D01*
X20756712Y4414385D01*
X20709093Y4319147D01*
X20709093Y4271528D01*
X20756712Y4176290D01*
X20804331Y4128671D01*
X20899569Y4081052D01*
X21090046Y4081052D01*
X21185284Y4033433D01*
X21232903Y3985814D01*
X21280522Y3890576D01*
X21280522Y3700100D01*
X21232903Y3604862D01*
X21185284Y3557243D01*
X21090046Y3509624D01*
X20899569Y3509624D01*
X20804331Y3557243D01*
X20756712Y3604862D01*
X20709093Y3700100D01*
X20709093Y3890576D01*
X20756712Y3985814D01*
X20804331Y4033433D01*
X20899569Y4081052D01*
%TO.C,C24*%
X-13315249Y-18315537D02*
X-13267630Y-18267918D01*
X-13220011Y-18125061D01*
X-13220011Y-18029823D01*
X-13267630Y-17886966D01*
X-13362868Y-17791728D01*
X-13458106Y-17744109D01*
X-13648582Y-17696490D01*
X-13791439Y-17696490D01*
X-13981915Y-17744109D01*
X-14077153Y-17791728D01*
X-14172392Y-17886966D01*
X-14220011Y-18029823D01*
X-14220011Y-18125061D01*
X-14172392Y-18267918D01*
X-14124772Y-18315537D01*
X-14124772Y-18696490D02*
X-14172392Y-18744109D01*
X-14220011Y-18839347D01*
X-14220011Y-19077442D01*
X-14172392Y-19172680D01*
X-14124772Y-19220299D01*
X-14029534Y-19267918D01*
X-13934296Y-19267918D01*
X-13791439Y-19220299D01*
X-13220011Y-18648871D01*
X-13220011Y-19267918D01*
X-13886677Y-20125061D02*
X-13220011Y-20125061D01*
X-14267630Y-19886966D02*
X-13553344Y-19648871D01*
X-13553344Y-20267918D01*
%TO.C,R16*%
X-14172011Y-24353637D02*
X-14648201Y-24020304D01*
X-14172011Y-23782209D02*
X-15172011Y-23782209D01*
X-15172011Y-24163161D01*
X-15124392Y-24258399D01*
X-15076772Y-24306018D01*
X-14981534Y-24353637D01*
X-14838677Y-24353637D01*
X-14743439Y-24306018D01*
X-14695820Y-24258399D01*
X-14648201Y-24163161D01*
X-14648201Y-23782209D01*
X-14172011Y-25306018D02*
X-14172011Y-24734590D01*
X-14172011Y-25020304D02*
X-15172011Y-25020304D01*
X-15029153Y-24925066D01*
X-14933915Y-24829828D01*
X-14886296Y-24734590D01*
X-15172011Y-26163161D02*
X-15172011Y-25972685D01*
X-15124392Y-25877447D01*
X-15076772Y-25829828D01*
X-14933915Y-25734590D01*
X-14743439Y-25686971D01*
X-14362487Y-25686971D01*
X-14267249Y-25734590D01*
X-14219630Y-25782209D01*
X-14172011Y-25877447D01*
X-14172011Y-26067923D01*
X-14219630Y-26163161D01*
X-14267249Y-26210780D01*
X-14362487Y-26258399D01*
X-14600582Y-26258399D01*
X-14695820Y-26210780D01*
X-14743439Y-26163161D01*
X-14791058Y-26067923D01*
X-14791058Y-25877447D01*
X-14743439Y-25782209D01*
X-14695820Y-25734590D01*
X-14600582Y-25686971D01*
%TO.C,R20*%
X-1028134Y-101675D02*
X-694801Y374514D01*
X-456706Y-101675D02*
X-456706Y898324D01*
X-837658Y898324D01*
X-932896Y850705D01*
X-980515Y803085D01*
X-1028134Y707847D01*
X-1028134Y564990D01*
X-980515Y469752D01*
X-932896Y422133D01*
X-837658Y374514D01*
X-456706Y374514D01*
X-1409087Y803085D02*
X-1456706Y850705D01*
X-1551944Y898324D01*
X-1790039Y898324D01*
X-1885277Y850705D01*
X-1932896Y803085D01*
X-1980515Y707847D01*
X-1980515Y612609D01*
X-1932896Y469752D01*
X-1361468Y-101675D01*
X-1980515Y-101675D01*
X-2599563Y898324D02*
X-2694801Y898324D01*
X-2790039Y850705D01*
X-2837658Y803085D01*
X-2885277Y707847D01*
X-2932896Y517371D01*
X-2932896Y279276D01*
X-2885277Y88800D01*
X-2837658Y-6437D01*
X-2790039Y-54056D01*
X-2694801Y-101675D01*
X-2599563Y-101675D01*
X-2504325Y-54056D01*
X-2456706Y-6437D01*
X-2409087Y88800D01*
X-2361468Y279276D01*
X-2361468Y517371D01*
X-2409087Y707847D01*
X-2456706Y803085D01*
X-2504325Y850705D01*
X-2599563Y898324D01*
%TO.C,D3*%
X13000403Y1927224D02*
X13000403Y2927224D01*
X12762308Y2927224D01*
X12619450Y2879605D01*
X12524212Y2784366D01*
X12476593Y2689128D01*
X12428974Y2498652D01*
X12428974Y2355795D01*
X12476593Y2165319D01*
X12524212Y2070081D01*
X12619450Y1974843D01*
X12762308Y1927224D01*
X13000403Y1927224D01*
X12095641Y2927224D02*
X11476593Y2927224D01*
X11809927Y2546271D01*
X11667069Y2546271D01*
X11571831Y2498652D01*
X11524212Y2451033D01*
X11476593Y2355795D01*
X11476593Y2117700D01*
X11524212Y2022462D01*
X11571831Y1974843D01*
X11667069Y1927224D01*
X11952784Y1927224D01*
X12048022Y1974843D01*
X12095641Y2022462D01*
%TO.C,C3*%
X25362450Y-21737528D02*
X25410069Y-21689909D01*
X25457688Y-21547052D01*
X25457688Y-21451814D01*
X25410069Y-21308956D01*
X25314831Y-21213718D01*
X25219593Y-21166099D01*
X25029117Y-21118480D01*
X24886260Y-21118480D01*
X24695784Y-21166099D01*
X24600546Y-21213718D01*
X24505308Y-21308956D01*
X24457688Y-21451814D01*
X24457688Y-21547052D01*
X24505308Y-21689909D01*
X24552927Y-21737528D01*
X24457688Y-22070861D02*
X24457688Y-22689909D01*
X24838641Y-22356575D01*
X24838641Y-22499433D01*
X24886260Y-22594671D01*
X24933879Y-22642290D01*
X25029117Y-22689909D01*
X25267212Y-22689909D01*
X25362450Y-22642290D01*
X25410069Y-22594671D01*
X25457688Y-22499433D01*
X25457688Y-22213718D01*
X25410069Y-22118480D01*
X25362450Y-22070861D01*
%TO.C,R15*%
X26273088Y2365862D02*
X25796898Y2699195D01*
X26273088Y2937290D02*
X25273088Y2937290D01*
X25273088Y2556338D01*
X25320708Y2461100D01*
X25368327Y2413481D01*
X25463565Y2365862D01*
X25606422Y2365862D01*
X25701660Y2413481D01*
X25749279Y2461100D01*
X25796898Y2556338D01*
X25796898Y2937290D01*
X26273088Y1413481D02*
X26273088Y1984909D01*
X26273088Y1699195D02*
X25273088Y1699195D01*
X25415946Y1794433D01*
X25511184Y1889671D01*
X25558803Y1984909D01*
X25273088Y508719D02*
X25273088Y984909D01*
X25749279Y1032528D01*
X25701660Y984909D01*
X25654041Y889671D01*
X25654041Y651576D01*
X25701660Y556338D01*
X25749279Y508719D01*
X25844517Y461100D01*
X26082612Y461100D01*
X26177850Y508719D01*
X26225469Y556338D01*
X26273088Y651576D01*
X26273088Y889671D01*
X26225469Y984909D01*
X26177850Y1032528D01*
%TO.C,C7*%
X24992950Y-21783128D02*
X25040569Y-21735509D01*
X25088188Y-21592652D01*
X25088188Y-21497414D01*
X25040569Y-21354556D01*
X24945331Y-21259318D01*
X24850093Y-21211699D01*
X24659617Y-21164080D01*
X24516760Y-21164080D01*
X24326284Y-21211699D01*
X24231046Y-21259318D01*
X24135808Y-21354556D01*
X24088188Y-21497414D01*
X24088188Y-21592652D01*
X24135808Y-21735509D01*
X24183427Y-21783128D01*
X24088188Y-22116461D02*
X24088188Y-22783128D01*
X25088188Y-22354556D01*
%TO.C,R7*%
X17541774Y6809624D02*
X17875108Y7285814D01*
X18113203Y6809624D02*
X18113203Y7809624D01*
X17732250Y7809624D01*
X17637012Y7762005D01*
X17589393Y7714385D01*
X17541774Y7619147D01*
X17541774Y7476290D01*
X17589393Y7381052D01*
X17637012Y7333433D01*
X17732250Y7285814D01*
X18113203Y7285814D01*
X17208441Y7809624D02*
X16541774Y7809624D01*
X16970346Y6809624D01*
%TO.C,R1*%
X7960688Y-12784628D02*
X7484498Y-12451295D01*
X7960688Y-12213199D02*
X6960688Y-12213199D01*
X6960688Y-12594152D01*
X7008308Y-12689390D01*
X7055927Y-12737009D01*
X7151165Y-12784628D01*
X7294022Y-12784628D01*
X7389260Y-12737009D01*
X7436879Y-12689390D01*
X7484498Y-12594152D01*
X7484498Y-12213199D01*
X7960688Y-13737009D02*
X7960688Y-13165580D01*
X7960688Y-13451295D02*
X6960688Y-13451294D01*
X7103546Y-13356056D01*
X7198784Y-13260818D01*
X7246403Y-13165580D01*
%TO.C,R2*%
X25375588Y-27512928D02*
X24899398Y-27179595D01*
X25375588Y-26941499D02*
X24375588Y-26941499D01*
X24375588Y-27322452D01*
X24423208Y-27417690D01*
X24470827Y-27465309D01*
X24566065Y-27512928D01*
X24708922Y-27512928D01*
X24804160Y-27465309D01*
X24851779Y-27417690D01*
X24899398Y-27322452D01*
X24899398Y-26941499D01*
X24470827Y-27893880D02*
X24423208Y-27941499D01*
X24375588Y-28036737D01*
X24375588Y-28274833D01*
X24423208Y-28370071D01*
X24470827Y-28417690D01*
X24566065Y-28465309D01*
X24661303Y-28465309D01*
X24804160Y-28417690D01*
X25375588Y-27846261D01*
X25375588Y-28465309D01*
%TO.C,C6*%
X8324050Y-7389528D02*
X8371669Y-7341909D01*
X8419288Y-7199052D01*
X8419288Y-7103814D01*
X8371669Y-6960956D01*
X8276431Y-6865718D01*
X8181193Y-6818099D01*
X7990717Y-6770480D01*
X7847860Y-6770480D01*
X7657384Y-6818099D01*
X7562146Y-6865718D01*
X7466908Y-6960956D01*
X7419288Y-7103814D01*
X7419288Y-7199052D01*
X7466908Y-7341909D01*
X7514527Y-7389528D01*
X7419288Y-8246671D02*
X7419288Y-8056194D01*
X7466908Y-7960956D01*
X7514527Y-7913337D01*
X7657384Y-7818099D01*
X7847860Y-7770480D01*
X8228812Y-7770480D01*
X8324050Y-7818099D01*
X8371669Y-7865718D01*
X8419288Y-7960956D01*
X8419288Y-8151433D01*
X8371669Y-8246671D01*
X8324050Y-8294290D01*
X8228812Y-8341909D01*
X7990717Y-8341909D01*
X7895479Y-8294290D01*
X7847860Y-8246671D01*
X7800241Y-8151433D01*
X7800241Y-7960956D01*
X7847860Y-7865718D01*
X7895479Y-7818099D01*
X7990717Y-7770480D01*
%TO.C,C4*%
X16697574Y-22214737D02*
X16745193Y-22262356D01*
X16888050Y-22309975D01*
X16983288Y-22309975D01*
X17126146Y-22262356D01*
X17221384Y-22167118D01*
X17269003Y-22071880D01*
X17316622Y-21881404D01*
X17316622Y-21738547D01*
X17269003Y-21548071D01*
X17221384Y-21452833D01*
X17126146Y-21357595D01*
X16983288Y-21309975D01*
X16888050Y-21309975D01*
X16745193Y-21357595D01*
X16697574Y-21405214D01*
X15840431Y-21643309D02*
X15840431Y-22309975D01*
X16078527Y-21262356D02*
X16316622Y-21976642D01*
X15697574Y-21976642D01*
%TO.C,S1*%
X-12784687Y-472756D02*
X-12927544Y-520375D01*
X-13165639Y-520375D01*
X-13260877Y-472756D01*
X-13308496Y-425137D01*
X-13356115Y-329899D01*
X-13356115Y-234661D01*
X-13308496Y-139423D01*
X-13260877Y-91804D01*
X-13165639Y-44185D01*
X-12975163Y3433D01*
X-12879925Y51052D01*
X-12832306Y98671D01*
X-12784687Y193909D01*
X-12784687Y289147D01*
X-12832306Y384385D01*
X-12879925Y432005D01*
X-12975163Y479624D01*
X-13213258Y479624D01*
X-13356115Y432005D01*
X-14308496Y-520375D02*
X-13737068Y-520375D01*
X-14022782Y-520375D02*
X-14022782Y479624D01*
X-13927544Y336766D01*
X-13832306Y241528D01*
X-13737068Y193909D01*
%TO.C,C29*%
X-422234Y-6717937D02*
X-374615Y-6765556D01*
X-231758Y-6813175D01*
X-136520Y-6813175D01*
X6336Y-6765556D01*
X101574Y-6670318D01*
X149193Y-6575080D01*
X196812Y-6384604D01*
X196812Y-6241747D01*
X149193Y-6051271D01*
X101574Y-5956033D01*
X6336Y-5860795D01*
X-136520Y-5813175D01*
X-231758Y-5813175D01*
X-374615Y-5860795D01*
X-422234Y-5908414D01*
X-803187Y-5908414D02*
X-850806Y-5860795D01*
X-946044Y-5813175D01*
X-1184139Y-5813175D01*
X-1279377Y-5860795D01*
X-1326996Y-5908414D01*
X-1374615Y-6003652D01*
X-1374615Y-6098890D01*
X-1326996Y-6241747D01*
X-755568Y-6813175D01*
X-1374615Y-6813175D01*
X-1850806Y-6813175D02*
X-2041282Y-6813175D01*
X-2136520Y-6765556D01*
X-2184139Y-6717937D01*
X-2279377Y-6575080D01*
X-2326996Y-6384604D01*
X-2326996Y-6003652D01*
X-2279377Y-5908414D01*
X-2231758Y-5860795D01*
X-2136520Y-5813175D01*
X-1946044Y-5813175D01*
X-1850806Y-5860795D01*
X-1803187Y-5908414D01*
X-1755568Y-6003652D01*
X-1755568Y-6241747D01*
X-1803187Y-6336985D01*
X-1850806Y-6384604D01*
X-1946044Y-6432223D01*
X-2136520Y-6432223D01*
X-2231758Y-6384604D01*
X-2279377Y-6336985D01*
X-2326996Y-6241747D01*
%TO.C,C19*%
X26322150Y2327862D02*
X26369769Y2375481D01*
X26417388Y2518338D01*
X26417388Y2613576D01*
X26369769Y2756433D01*
X26274531Y2851671D01*
X26179293Y2899290D01*
X25988817Y2946909D01*
X25845960Y2946909D01*
X25655484Y2899290D01*
X25560246Y2851671D01*
X25465008Y2756433D01*
X25417388Y2613576D01*
X25417388Y2518338D01*
X25465008Y2375481D01*
X25512627Y2327862D01*
X26417388Y1375481D02*
X26417388Y1946909D01*
X26417388Y1661195D02*
X25417388Y1661195D01*
X25560246Y1756433D01*
X25655484Y1851671D01*
X25703103Y1946909D01*
X26417388Y899290D02*
X26417388Y708814D01*
X26369769Y613576D01*
X26322150Y565957D01*
X26179293Y470719D01*
X25988817Y423100D01*
X25607865Y423100D01*
X25512627Y470719D01*
X25465008Y518338D01*
X25417388Y613576D01*
X25417388Y804052D01*
X25465008Y899290D01*
X25512627Y946909D01*
X25607865Y994528D01*
X25845960Y994528D01*
X25941198Y946909D01*
X25988817Y899290D01*
X26036436Y804052D01*
X26036436Y613576D01*
X25988817Y518338D01*
X25941198Y470719D01*
X25845960Y423100D01*
D12*
%TO.C,R3*%
X11016044Y-19325095D02*
X11470172Y-19325095D01*
X11016044Y-20795095D02*
X11470172Y-20795095D01*
%TO.C,U1*%
X12805608Y-13481395D02*
X18815608Y-13481395D01*
X15055608Y-6661395D02*
X18815608Y-6661395D01*
X18815608Y-6661395D02*
X18815608Y-7921395D01*
X18815608Y-13481395D02*
X18815608Y-12221395D01*
%TO.C,C11*%
X37147560Y-18780395D02*
X36625056Y-18780395D01*
X37147560Y-20250395D02*
X36625056Y-20250395D01*
%TO.C,C12*%
X6042108Y-21047747D02*
X6042108Y-20525243D01*
X7512108Y-21047747D02*
X7512108Y-20525243D01*
%TO.C,R17*%
X43908Y-24744931D02*
X43908Y-25199059D01*
X-1426092Y-24744931D02*
X-1426092Y-25199059D01*
%TO.C,C26*%
X-1642992Y-19707547D02*
X-1642992Y-18285043D01*
X-3462992Y-19707547D02*
X-3462992Y-18285043D01*
%TO.C,C20*%
X-8921592Y-25087747D02*
X-8921592Y-23665243D01*
X-10741592Y-25087747D02*
X-10741592Y-23665243D01*
%TO.C,Q3*%
X11439408Y-22548395D02*
X13114408Y-22548395D01*
X11439408Y-22548395D02*
X10789408Y-22548395D01*
X11439408Y-25668395D02*
X10789408Y-25668395D01*
X11439408Y-25668395D02*
X12089408Y-25668395D01*
%TO.C,C22*%
X3380108Y-25063247D02*
X3380108Y-23640743D01*
X1560108Y-25063247D02*
X1560108Y-23640743D01*
%TO.C,U2*%
X30087808Y-28966695D02*
X36097808Y-28966695D01*
X32337808Y-22146695D02*
X36097808Y-22146695D01*
X36097808Y-22146695D02*
X36097808Y-23406695D01*
X36097808Y-28966695D02*
X36097808Y-27706695D01*
%TO.C,C10*%
X24522808Y-10332647D02*
X24522808Y-9810143D01*
X23052808Y-10332647D02*
X23052808Y-9810143D01*
%TO.C,U3*%
X17300308Y-29419195D02*
X17300308Y-33179195D01*
X10480308Y-33179195D02*
X11740308Y-33179195D01*
X10480308Y-27169195D02*
X10480308Y-33179195D01*
X17300308Y-33179195D02*
X16040308Y-33179195D01*
%TO.C,Q2*%
X8251408Y-12698395D02*
X8251408Y-11023395D01*
X11371408Y-12698395D02*
X11371408Y-13348395D01*
X11371408Y-12698395D02*
X11371408Y-12048395D01*
X8251408Y-12698395D02*
X8251408Y-13348395D01*
%TO.C,C2*%
X6623308Y-7841147D02*
X6623308Y-7318643D01*
X5153308Y-7841147D02*
X5153308Y-7318643D01*
%TO.C,Q1*%
X25078008Y-27419995D02*
X25078008Y-25744995D01*
X28198008Y-27419995D02*
X28198008Y-26769995D01*
X25078008Y-27419995D02*
X25078008Y-28069995D01*
X28198008Y-27419995D02*
X28198008Y-28069995D01*
%TO.C,U4*%
X9629108Y10033205D02*
X7679108Y10033205D01*
X9629108Y4913205D02*
X11579108Y4913205D01*
X9629108Y10033205D02*
X11579108Y10033205D01*
X9629108Y4913205D02*
X6179108Y4913205D01*
%TO.C,C8*%
X16772260Y-24739195D02*
X16249756Y-24739195D01*
X16772260Y-23269195D02*
X16249756Y-23269195D01*
%TO.C,R8*%
X21267744Y6347005D02*
X21721872Y6347005D01*
X21267744Y4877005D02*
X21721872Y4877005D01*
%TO.C,C24*%
X-16432392Y-19669647D02*
X-16432392Y-18247143D01*
X-14612392Y-19669647D02*
X-14612392Y-18247143D01*
%TO.C,R16*%
X-12239392Y-24769431D02*
X-12239392Y-25223559D01*
X-13709392Y-24769431D02*
X-13709392Y-25223559D01*
%TO.C,R20*%
X-1443928Y-564295D02*
X-1898056Y-564295D01*
X-1443928Y-2034295D02*
X-1898056Y-2034295D01*
%TO.C,D3*%
X14512308Y1379605D02*
X14512308Y-620395D01*
X14512308Y1379605D02*
X10612308Y1379605D01*
X14512308Y-620395D02*
X10612308Y-620395D01*
%TO.C,C3*%
X22590308Y-22165447D02*
X22590308Y-21642943D01*
X24060308Y-22165447D02*
X24060308Y-21642943D01*
%TO.C,R15*%
X28205708Y1950069D02*
X28205708Y1495941D01*
X26735708Y1950069D02*
X26735708Y1495941D01*
%TO.C,C7*%
X25580808Y-21688543D02*
X25580808Y-22211047D01*
X27050808Y-21688543D02*
X27050808Y-22211047D01*
%TO.C,R7*%
X17602172Y4877005D02*
X17148044Y4877005D01*
X17602172Y6347005D02*
X17148044Y6347005D01*
%TO.C,R1*%
X6593308Y-13178359D02*
X6593308Y-12724231D01*
X5123308Y-13178359D02*
X5123308Y-12724231D01*
%TO.C,R2*%
X22538208Y-27906659D02*
X22538208Y-27452531D01*
X24008208Y-27906659D02*
X24008208Y-27452531D01*
%TO.C,C6*%
X10381908Y-7294943D02*
X10381908Y-7817447D01*
X8911908Y-7294943D02*
X8911908Y-7817447D01*
%TO.C,C4*%
X16269656Y-20912595D02*
X16792160Y-20912595D01*
X16269656Y-19442595D02*
X16792160Y-19442595D01*
%TO.C,S1*%
X-17356592Y662005D02*
X-17356592Y10822005D01*
X-9736592Y10822005D02*
X-9736592Y662005D01*
X-17356592Y10822005D02*
X-9736592Y10822005D01*
X-17356592Y662005D02*
X-9736592Y662005D01*
X-11546592Y5742005D02*
G75*
G03*
X-11546592Y5742005I-2000000J0D01*
G01*
%TO.C,C29*%
X-1776344Y-5420795D02*
X-353840Y-5420795D01*
X-1776344Y-3600795D02*
X-353840Y-3600795D01*
%TO.C,C19*%
X25020008Y1423753D02*
X25020008Y1946257D01*
X23550008Y1423753D02*
X23550008Y1946257D01*
%TD*%
M02*
