%TF.GenerationSoftware,KiCad,Pcbnew,(6.0.1-0)*%
%TF.CreationDate,2022-06-02T12:12:10+03:00*%
%TF.ProjectId,VoltageRegulator,566f6c74-6167-4655-9265-67756c61746f,rev?*%
%TF.SameCoordinates,Original*%
%TF.FileFunction,Legend,Top*%
%TF.FilePolarity,Positive*%
%FSLAX46Y46*%
G04 Gerber Fmt 4.6, Leading zero omitted, Abs format (unit mm)*
G04 Created by KiCad (PCBNEW (6.0.1-0)) date 2022-06-02 12:12:10*
%MOMM*%
%LPD*%
G01*
G04 APERTURE LIST*
%TA.AperFunction,Profile*%
%ADD10C,0.100000*%
%TD*%
%ADD11C,0.254000*%
%ADD12C,0.150000*%
%ADD13C,0.200000*%
%ADD14C,0.120000*%
%ADD15C,0.100000*%
G04 APERTURE END LIST*
D10*
X41505308Y-38806895D02*
X-19874692Y-38806895D01*
X-19874692Y-38806895D02*
X-19874692Y15193105D01*
X-19874692Y15193105D02*
X41505308Y15193105D01*
X41505308Y15193105D02*
X41505308Y-38806895D01*
D11*
%TO.C,J7*%
X37509831Y11539771D02*
X38416974Y11539771D01*
X38598403Y11479295D01*
X38719355Y11358343D01*
X38779831Y11176914D01*
X38779831Y11055962D01*
X37509831Y12023581D02*
X37509831Y12870247D01*
X38779831Y12325962D01*
D12*
%TO.C,R10*%
X24383350Y-1807575D02*
X24050017Y-1331385D01*
X23811922Y-1807575D02*
X23811922Y-807575D01*
X24192874Y-807575D01*
X24288112Y-855195D01*
X24335731Y-902814D01*
X24383350Y-998052D01*
X24383350Y-1140909D01*
X24335731Y-1236147D01*
X24288112Y-1283766D01*
X24192874Y-1331385D01*
X23811922Y-1331385D01*
X25335731Y-1807575D02*
X24764303Y-1807575D01*
X25050017Y-1807575D02*
X25050017Y-807575D01*
X24954779Y-950433D01*
X24859541Y-1045671D01*
X24764303Y-1093290D01*
X25954779Y-807575D02*
X26050017Y-807575D01*
X26145255Y-855195D01*
X26192874Y-902814D01*
X26240493Y-998052D01*
X26288112Y-1188528D01*
X26288112Y-1426623D01*
X26240493Y-1617099D01*
X26192874Y-1712337D01*
X26145255Y-1759956D01*
X26050017Y-1807575D01*
X25954779Y-1807575D01*
X25859541Y-1759956D01*
X25811922Y-1712337D01*
X25764303Y-1617099D01*
X25716684Y-1426623D01*
X25716684Y-1188528D01*
X25764303Y-998052D01*
X25811922Y-902814D01*
X25859541Y-855195D01*
X25954779Y-807575D01*
%TO.C,C23*%
X8677050Y-24564052D02*
X8724669Y-24611671D01*
X8772288Y-24754528D01*
X8772288Y-24849766D01*
X8724669Y-24992623D01*
X8629431Y-25087861D01*
X8534193Y-25135480D01*
X8343717Y-25183099D01*
X8200860Y-25183099D01*
X8010384Y-25135480D01*
X7915146Y-25087861D01*
X7819908Y-24992623D01*
X7772288Y-24849766D01*
X7772288Y-24754528D01*
X7819908Y-24611671D01*
X7867527Y-24564052D01*
X7867527Y-24183099D02*
X7819908Y-24135480D01*
X7772288Y-24040242D01*
X7772288Y-23802147D01*
X7819908Y-23706909D01*
X7867527Y-23659290D01*
X7962765Y-23611671D01*
X8058003Y-23611671D01*
X8200860Y-23659290D01*
X8772288Y-24230718D01*
X8772288Y-23611671D01*
X7772288Y-23278337D02*
X7772288Y-22659290D01*
X8153241Y-22992623D01*
X8153241Y-22849766D01*
X8200860Y-22754528D01*
X8248479Y-22706909D01*
X8343717Y-22659290D01*
X8581812Y-22659290D01*
X8677050Y-22706909D01*
X8724669Y-22754528D01*
X8772288Y-22849766D01*
X8772288Y-23135480D01*
X8724669Y-23230718D01*
X8677050Y-23278337D01*
%TO.C,C28*%
X26729550Y-10332452D02*
X26777169Y-10380071D01*
X26824788Y-10522928D01*
X26824788Y-10618166D01*
X26777169Y-10761023D01*
X26681931Y-10856261D01*
X26586693Y-10903880D01*
X26396217Y-10951499D01*
X26253360Y-10951499D01*
X26062884Y-10903880D01*
X25967646Y-10856261D01*
X25872408Y-10761023D01*
X25824788Y-10618166D01*
X25824788Y-10522928D01*
X25872408Y-10380071D01*
X25920027Y-10332452D01*
X25920027Y-9951499D02*
X25872408Y-9903880D01*
X25824788Y-9808642D01*
X25824788Y-9570547D01*
X25872408Y-9475309D01*
X25920027Y-9427690D01*
X26015265Y-9380071D01*
X26110503Y-9380071D01*
X26253360Y-9427690D01*
X26824788Y-9999118D01*
X26824788Y-9380071D01*
X26253360Y-8808642D02*
X26205741Y-8903880D01*
X26158122Y-8951499D01*
X26062884Y-8999118D01*
X26015265Y-8999118D01*
X25920027Y-8951499D01*
X25872408Y-8903880D01*
X25824788Y-8808642D01*
X25824788Y-8618166D01*
X25872408Y-8522928D01*
X25920027Y-8475309D01*
X26015265Y-8427690D01*
X26062884Y-8427690D01*
X26158122Y-8475309D01*
X26205741Y-8522928D01*
X26253360Y-8618166D01*
X26253360Y-8808642D01*
X26300979Y-8903880D01*
X26348598Y-8951499D01*
X26443836Y-8999118D01*
X26634312Y-8999118D01*
X26729550Y-8951499D01*
X26777169Y-8903880D01*
X26824788Y-8808642D01*
X26824788Y-8618166D01*
X26777169Y-8522928D01*
X26729550Y-8475309D01*
X26634312Y-8427690D01*
X26443836Y-8427690D01*
X26348598Y-8475309D01*
X26300979Y-8522928D01*
X26253360Y-8618166D01*
%TO.C,SW2*%
X-117225Y-36296156D02*
X25631Y-36343775D01*
X263727Y-36343775D01*
X358965Y-36296156D01*
X406584Y-36248537D01*
X454203Y-36153299D01*
X454203Y-36058061D01*
X406584Y-35962823D01*
X358965Y-35915204D01*
X263727Y-35867585D01*
X73250Y-35819966D01*
X-21987Y-35772347D01*
X-69606Y-35724728D01*
X-117225Y-35629490D01*
X-117225Y-35534252D01*
X-69606Y-35439014D01*
X-21987Y-35391395D01*
X73250Y-35343775D01*
X311346Y-35343775D01*
X454203Y-35391395D01*
X787536Y-35343775D02*
X1025631Y-36343775D01*
X1216108Y-35629490D01*
X1406584Y-36343775D01*
X1644679Y-35343775D01*
X1978012Y-35439014D02*
X2025631Y-35391395D01*
X2120869Y-35343775D01*
X2358965Y-35343775D01*
X2454203Y-35391395D01*
X2501822Y-35439014D01*
X2549441Y-35534252D01*
X2549441Y-35629490D01*
X2501822Y-35772347D01*
X1930393Y-36343775D01*
X2549441Y-36343775D01*
%TO.C,IC1*%
X13049517Y-15256975D02*
X13049517Y-14256975D01*
X14097136Y-15161737D02*
X14049517Y-15209356D01*
X13906660Y-15256975D01*
X13811422Y-15256975D01*
X13668565Y-15209356D01*
X13573327Y-15114118D01*
X13525708Y-15018880D01*
X13478088Y-14828404D01*
X13478088Y-14685547D01*
X13525708Y-14495071D01*
X13573327Y-14399833D01*
X13668565Y-14304595D01*
X13811422Y-14256975D01*
X13906660Y-14256975D01*
X14049517Y-14304595D01*
X14097136Y-14352214D01*
X15049517Y-15256975D02*
X14478088Y-15256975D01*
X14763803Y-15256975D02*
X14763803Y-14256975D01*
X14668565Y-14399833D01*
X14573327Y-14495071D01*
X14478088Y-14542690D01*
%TO.C,R22*%
X20506850Y-6098775D02*
X20173517Y-5622585D01*
X19935422Y-6098775D02*
X19935422Y-5098775D01*
X20316374Y-5098775D01*
X20411612Y-5146395D01*
X20459231Y-5194014D01*
X20506850Y-5289252D01*
X20506850Y-5432109D01*
X20459231Y-5527347D01*
X20411612Y-5574966D01*
X20316374Y-5622585D01*
X19935422Y-5622585D01*
X20887803Y-5194014D02*
X20935422Y-5146395D01*
X21030660Y-5098775D01*
X21268755Y-5098775D01*
X21363993Y-5146395D01*
X21411612Y-5194014D01*
X21459231Y-5289252D01*
X21459231Y-5384490D01*
X21411612Y-5527347D01*
X20840184Y-6098775D01*
X21459231Y-6098775D01*
X21840184Y-5194014D02*
X21887803Y-5146395D01*
X21983041Y-5098775D01*
X22221136Y-5098775D01*
X22316374Y-5146395D01*
X22363993Y-5194014D01*
X22411612Y-5289252D01*
X22411612Y-5384490D01*
X22363993Y-5527347D01*
X21792565Y-6098775D01*
X22411612Y-6098775D01*
%TO.C,L2*%
X13792241Y-30404075D02*
X13316050Y-30404075D01*
X13316050Y-29404075D01*
X14077955Y-29499314D02*
X14125574Y-29451695D01*
X14220812Y-29404075D01*
X14458908Y-29404075D01*
X14554146Y-29451695D01*
X14601765Y-29499314D01*
X14649384Y-29594552D01*
X14649384Y-29689790D01*
X14601765Y-29832647D01*
X14030336Y-30404075D01*
X14649384Y-30404075D01*
%TO.C,D4*%
X26556112Y-2472475D02*
X26556112Y-1472475D01*
X26794208Y-1472475D01*
X26937065Y-1520095D01*
X27032303Y-1615333D01*
X27079922Y-1710571D01*
X27127541Y-1901047D01*
X27127541Y-2043904D01*
X27079922Y-2234380D01*
X27032303Y-2329618D01*
X26937065Y-2424856D01*
X26794208Y-2472475D01*
X26556112Y-2472475D01*
X27984684Y-1805809D02*
X27984684Y-2472475D01*
X27746588Y-1424856D02*
X27508493Y-2139142D01*
X28127541Y-2139142D01*
%TO.C,C15*%
X5641550Y-13875637D02*
X5593931Y-13923256D01*
X5451074Y-13970875D01*
X5355836Y-13970875D01*
X5212979Y-13923256D01*
X5117741Y-13828018D01*
X5070122Y-13732780D01*
X5022503Y-13542304D01*
X5022503Y-13399447D01*
X5070122Y-13208971D01*
X5117741Y-13113733D01*
X5212979Y-13018495D01*
X5355836Y-12970875D01*
X5451074Y-12970875D01*
X5593931Y-13018495D01*
X5641550Y-13066114D01*
X6593931Y-13970875D02*
X6022503Y-13970875D01*
X6308217Y-13970875D02*
X6308217Y-12970875D01*
X6212979Y-13113733D01*
X6117741Y-13208971D01*
X6022503Y-13256590D01*
X7498693Y-12970875D02*
X7022503Y-12970875D01*
X6974884Y-13447066D01*
X7022503Y-13399447D01*
X7117741Y-13351828D01*
X7355836Y-13351828D01*
X7451074Y-13399447D01*
X7498693Y-13447066D01*
X7546312Y-13542304D01*
X7546312Y-13780399D01*
X7498693Y-13875637D01*
X7451074Y-13923256D01*
X7355836Y-13970875D01*
X7117741Y-13970875D01*
X7022503Y-13923256D01*
X6974884Y-13875637D01*
%TO.C,C9*%
X22667350Y-12496861D02*
X22714969Y-12544480D01*
X22762588Y-12687337D01*
X22762588Y-12782575D01*
X22714969Y-12925433D01*
X22619731Y-13020671D01*
X22524493Y-13068290D01*
X22334017Y-13115909D01*
X22191160Y-13115909D01*
X22000684Y-13068290D01*
X21905446Y-13020671D01*
X21810208Y-12925433D01*
X21762588Y-12782575D01*
X21762588Y-12687337D01*
X21810208Y-12544480D01*
X21857827Y-12496861D01*
X22762588Y-12020671D02*
X22762588Y-11830195D01*
X22714969Y-11734956D01*
X22667350Y-11687337D01*
X22524493Y-11592099D01*
X22334017Y-11544480D01*
X21953065Y-11544480D01*
X21857827Y-11592099D01*
X21810208Y-11639718D01*
X21762588Y-11734956D01*
X21762588Y-11925433D01*
X21810208Y-12020671D01*
X21857827Y-12068290D01*
X21953065Y-12115909D01*
X22191160Y-12115909D01*
X22286398Y-12068290D01*
X22334017Y-12020671D01*
X22381636Y-11925433D01*
X22381636Y-11734956D01*
X22334017Y-11639718D01*
X22286398Y-11592099D01*
X22191160Y-11544480D01*
%TO.C,R4*%
X9658988Y-4549061D02*
X9182798Y-4882395D01*
X9658988Y-5120490D02*
X8658988Y-5120490D01*
X8658988Y-4739537D01*
X8706608Y-4644299D01*
X8754227Y-4596680D01*
X8849465Y-4549061D01*
X8992322Y-4549061D01*
X9087560Y-4596680D01*
X9135179Y-4644299D01*
X9182798Y-4739537D01*
X9182798Y-5120490D01*
X8992322Y-3691918D02*
X9658988Y-3691918D01*
X8611369Y-3930014D02*
X9325655Y-4168109D01*
X9325655Y-3549061D01*
%TO.C,R6*%
X7690288Y-4549061D02*
X7214098Y-4882395D01*
X7690288Y-5120490D02*
X6690288Y-5120490D01*
X6690288Y-4739537D01*
X6737908Y-4644299D01*
X6785527Y-4596680D01*
X6880765Y-4549061D01*
X7023622Y-4549061D01*
X7118860Y-4596680D01*
X7166479Y-4644299D01*
X7214098Y-4739537D01*
X7214098Y-5120490D01*
X6690288Y-3691918D02*
X6690288Y-3882395D01*
X6737908Y-3977633D01*
X6785527Y-4025252D01*
X6928384Y-4120490D01*
X7118860Y-4168109D01*
X7499812Y-4168109D01*
X7595050Y-4120490D01*
X7642669Y-4072871D01*
X7690288Y-3977633D01*
X7690288Y-3787156D01*
X7642669Y-3691918D01*
X7595050Y-3644299D01*
X7499812Y-3596680D01*
X7261717Y-3596680D01*
X7166479Y-3644299D01*
X7118860Y-3691918D01*
X7071241Y-3787156D01*
X7071241Y-3977633D01*
X7118860Y-4072871D01*
X7166479Y-4120490D01*
X7261717Y-4168109D01*
D11*
%TO.C,J8*%
X37509831Y-33360228D02*
X38416974Y-33360228D01*
X38598403Y-33420704D01*
X38719355Y-33541656D01*
X38779831Y-33723085D01*
X38779831Y-33844037D01*
X38054117Y-32574037D02*
X37993641Y-32694990D01*
X37933165Y-32755466D01*
X37812212Y-32815942D01*
X37751736Y-32815942D01*
X37630784Y-32755466D01*
X37570308Y-32694990D01*
X37509831Y-32574037D01*
X37509831Y-32332133D01*
X37570308Y-32211180D01*
X37630784Y-32150704D01*
X37751736Y-32090228D01*
X37812212Y-32090228D01*
X37933165Y-32150704D01*
X37993641Y-32211180D01*
X38054117Y-32332133D01*
X38054117Y-32574037D01*
X38114593Y-32694990D01*
X38175069Y-32755466D01*
X38296022Y-32815942D01*
X38537927Y-32815942D01*
X38658879Y-32755466D01*
X38719355Y-32694990D01*
X38779831Y-32574037D01*
X38779831Y-32332133D01*
X38719355Y-32211180D01*
X38658879Y-32150704D01*
X38537927Y-32090228D01*
X38296022Y-32090228D01*
X38175069Y-32150704D01*
X38114593Y-32211180D01*
X38054117Y-32332133D01*
%TO.C,J1*%
X36342231Y-15760528D02*
X37249374Y-15760528D01*
X37430803Y-15821004D01*
X37551755Y-15941956D01*
X37612231Y-16123385D01*
X37612231Y-16244337D01*
X37612231Y-14490528D02*
X37612231Y-15216242D01*
X37612231Y-14853385D02*
X36342231Y-14853385D01*
X36523660Y-14974337D01*
X36644612Y-15095290D01*
X36705088Y-15216242D01*
%TO.C,SW3*%
X-10948325Y-13037742D02*
X-10766896Y-13098218D01*
X-10464515Y-13098218D01*
X-10343563Y-13037742D01*
X-10283087Y-12977266D01*
X-10222611Y-12856314D01*
X-10222611Y-12735361D01*
X-10283087Y-12614409D01*
X-10343563Y-12553933D01*
X-10464515Y-12493456D01*
X-10706420Y-12432980D01*
X-10827372Y-12372504D01*
X-10887849Y-12312028D01*
X-10948325Y-12191075D01*
X-10948325Y-12070123D01*
X-10887849Y-11949171D01*
X-10827372Y-11888695D01*
X-10706420Y-11828218D01*
X-10404039Y-11828218D01*
X-10222611Y-11888695D01*
X-9799277Y-11828218D02*
X-9496896Y-13098218D01*
X-9254992Y-12191075D01*
X-9013087Y-13098218D01*
X-8710706Y-11828218D01*
X-8347849Y-11828218D02*
X-7561658Y-11828218D01*
X-7984992Y-12312028D01*
X-7803563Y-12312028D01*
X-7682611Y-12372504D01*
X-7622134Y-12432980D01*
X-7561658Y-12553933D01*
X-7561658Y-12856314D01*
X-7622134Y-12977266D01*
X-7682611Y-13037742D01*
X-7803563Y-13098218D01*
X-8166420Y-13098218D01*
X-8287372Y-13037742D01*
X-8347849Y-12977266D01*
D12*
%TO.C,L1*%
X9843041Y-1634675D02*
X9366850Y-1634675D01*
X9366850Y-634675D01*
X10700184Y-1634675D02*
X10128755Y-1634675D01*
X10414469Y-1634675D02*
X10414469Y-634675D01*
X10319231Y-777533D01*
X10223993Y-872771D01*
X10128755Y-920390D01*
%TO.C,C31*%
X33934750Y-33278952D02*
X33982369Y-33326571D01*
X34029988Y-33469428D01*
X34029988Y-33564666D01*
X33982369Y-33707523D01*
X33887131Y-33802761D01*
X33791893Y-33850380D01*
X33601417Y-33897999D01*
X33458560Y-33897999D01*
X33268084Y-33850380D01*
X33172846Y-33802761D01*
X33077608Y-33707523D01*
X33029988Y-33564666D01*
X33029988Y-33469428D01*
X33077608Y-33326571D01*
X33125227Y-33278952D01*
X33029988Y-32945618D02*
X33029988Y-32326571D01*
X33410941Y-32659904D01*
X33410941Y-32517047D01*
X33458560Y-32421809D01*
X33506179Y-32374190D01*
X33601417Y-32326571D01*
X33839512Y-32326571D01*
X33934750Y-32374190D01*
X33982369Y-32421809D01*
X34029988Y-32517047D01*
X34029988Y-32802761D01*
X33982369Y-32897999D01*
X33934750Y-32945618D01*
X34029988Y-31374190D02*
X34029988Y-31945618D01*
X34029988Y-31659904D02*
X33029988Y-31659904D01*
X33172846Y-31755142D01*
X33268084Y-31850380D01*
X33315703Y-31945618D01*
%TO.C,R19*%
X31299488Y-28414152D02*
X30823298Y-28747485D01*
X31299488Y-28985580D02*
X30299488Y-28985580D01*
X30299488Y-28604628D01*
X30347108Y-28509390D01*
X30394727Y-28461771D01*
X30489965Y-28414152D01*
X30632822Y-28414152D01*
X30728060Y-28461771D01*
X30775679Y-28509390D01*
X30823298Y-28604628D01*
X30823298Y-28985580D01*
X31299488Y-27461771D02*
X31299488Y-28033199D01*
X31299488Y-27747485D02*
X30299488Y-27747485D01*
X30442346Y-27842723D01*
X30537584Y-27937961D01*
X30585203Y-28033199D01*
X31299488Y-26985580D02*
X31299488Y-26795104D01*
X31251869Y-26699866D01*
X31204250Y-26652247D01*
X31061393Y-26557009D01*
X30870917Y-26509390D01*
X30489965Y-26509390D01*
X30394727Y-26557009D01*
X30347108Y-26604628D01*
X30299488Y-26699866D01*
X30299488Y-26890342D01*
X30347108Y-26985580D01*
X30394727Y-27033199D01*
X30489965Y-27080818D01*
X30728060Y-27080818D01*
X30823298Y-27033199D01*
X30870917Y-26985580D01*
X30918536Y-26890342D01*
X30918536Y-26699866D01*
X30870917Y-26604628D01*
X30823298Y-26557009D01*
X30728060Y-26509390D01*
%TO.C,R11*%
X5661550Y-7822675D02*
X5328217Y-7346485D01*
X5090122Y-7822675D02*
X5090122Y-6822675D01*
X5471074Y-6822675D01*
X5566312Y-6870295D01*
X5613931Y-6917914D01*
X5661550Y-7013152D01*
X5661550Y-7156009D01*
X5613931Y-7251247D01*
X5566312Y-7298866D01*
X5471074Y-7346485D01*
X5090122Y-7346485D01*
X6613931Y-7822675D02*
X6042503Y-7822675D01*
X6328217Y-7822675D02*
X6328217Y-6822675D01*
X6232979Y-6965533D01*
X6137741Y-7060771D01*
X6042503Y-7108390D01*
X7566312Y-7822675D02*
X6994884Y-7822675D01*
X7280598Y-7822675D02*
X7280598Y-6822675D01*
X7185360Y-6965533D01*
X7090122Y-7060771D01*
X6994884Y-7108390D01*
%TO.C,C21*%
X20284250Y-34193852D02*
X20331869Y-34241471D01*
X20379488Y-34384328D01*
X20379488Y-34479566D01*
X20331869Y-34622423D01*
X20236631Y-34717661D01*
X20141393Y-34765280D01*
X19950917Y-34812899D01*
X19808060Y-34812899D01*
X19617584Y-34765280D01*
X19522346Y-34717661D01*
X19427108Y-34622423D01*
X19379488Y-34479566D01*
X19379488Y-34384328D01*
X19427108Y-34241471D01*
X19474727Y-34193852D01*
X19474727Y-33812899D02*
X19427108Y-33765280D01*
X19379488Y-33670042D01*
X19379488Y-33431947D01*
X19427108Y-33336709D01*
X19474727Y-33289090D01*
X19569965Y-33241471D01*
X19665203Y-33241471D01*
X19808060Y-33289090D01*
X20379488Y-33860518D01*
X20379488Y-33241471D01*
X20379488Y-32289090D02*
X20379488Y-32860518D01*
X20379488Y-32574804D02*
X19379488Y-32574804D01*
X19522346Y-32670042D01*
X19617584Y-32765280D01*
X19665203Y-32860518D01*
%TO.C,R13*%
X13813050Y-20258075D02*
X13479717Y-19781885D01*
X13241622Y-20258075D02*
X13241622Y-19258075D01*
X13622574Y-19258075D01*
X13717812Y-19305695D01*
X13765431Y-19353314D01*
X13813050Y-19448552D01*
X13813050Y-19591409D01*
X13765431Y-19686647D01*
X13717812Y-19734266D01*
X13622574Y-19781885D01*
X13241622Y-19781885D01*
X14765431Y-20258075D02*
X14194003Y-20258075D01*
X14479717Y-20258075D02*
X14479717Y-19258075D01*
X14384479Y-19400933D01*
X14289241Y-19496171D01*
X14194003Y-19543790D01*
X15098765Y-19258075D02*
X15717812Y-19258075D01*
X15384479Y-19639028D01*
X15527336Y-19639028D01*
X15622574Y-19686647D01*
X15670193Y-19734266D01*
X15717812Y-19829504D01*
X15717812Y-20067599D01*
X15670193Y-20162837D01*
X15622574Y-20210456D01*
X15527336Y-20258075D01*
X15241622Y-20258075D01*
X15146384Y-20210456D01*
X15098765Y-20162837D01*
%TO.C,D1*%
X8977712Y12951924D02*
X8977712Y13951924D01*
X9215808Y13951924D01*
X9358665Y13904305D01*
X9453903Y13809066D01*
X9501522Y13713828D01*
X9549141Y13523352D01*
X9549141Y13380495D01*
X9501522Y13190019D01*
X9453903Y13094781D01*
X9358665Y12999543D01*
X9215808Y12951924D01*
X8977712Y12951924D01*
X10501522Y12951924D02*
X9930093Y12951924D01*
X10215808Y12951924D02*
X10215808Y13951924D01*
X10120569Y13809066D01*
X10025331Y13713828D01*
X9930093Y13666209D01*
%TO.C,U5*%
X26817388Y-24403199D02*
X27626912Y-24403199D01*
X27722150Y-24355580D01*
X27769769Y-24307961D01*
X27817388Y-24212723D01*
X27817388Y-24022247D01*
X27769769Y-23927009D01*
X27722150Y-23879390D01*
X27626912Y-23831771D01*
X26817388Y-23831771D01*
X26817388Y-22879390D02*
X26817388Y-23355580D01*
X27293579Y-23403199D01*
X27245960Y-23355580D01*
X27198341Y-23260342D01*
X27198341Y-23022247D01*
X27245960Y-22927009D01*
X27293579Y-22879390D01*
X27388817Y-22831771D01*
X27626912Y-22831771D01*
X27722150Y-22879390D01*
X27769769Y-22927009D01*
X27817388Y-23022247D01*
X27817388Y-23260342D01*
X27769769Y-23355580D01*
X27722150Y-23403199D01*
%TO.C,C14*%
X639068Y11540318D02*
X591449Y11492699D01*
X448592Y11445080D01*
X353354Y11445080D01*
X210497Y11492699D01*
X115259Y11587937D01*
X67640Y11683175D01*
X20021Y11873651D01*
X20021Y12016508D01*
X67640Y12206984D01*
X115259Y12302222D01*
X210497Y12397461D01*
X353354Y12445080D01*
X448592Y12445080D01*
X591449Y12397461D01*
X639068Y12349841D01*
X1591449Y11445080D02*
X1020021Y11445080D01*
X1305735Y11445080D02*
X1305735Y12445080D01*
X1210497Y12302222D01*
X1115259Y12206984D01*
X1020021Y12159365D01*
X2448592Y12111746D02*
X2448592Y11445080D01*
X2210497Y12492699D02*
X1972402Y11778413D01*
X2591449Y11778413D01*
%TO.C,OL1*%
X2775588Y-13626875D02*
X2775588Y-13436399D01*
X2823208Y-13341161D01*
X2918446Y-13245923D01*
X3108922Y-13198304D01*
X3442255Y-13198304D01*
X3632731Y-13245923D01*
X3727969Y-13341161D01*
X3775588Y-13436399D01*
X3775588Y-13626875D01*
X3727969Y-13722114D01*
X3632731Y-13817352D01*
X3442255Y-13864971D01*
X3108922Y-13864971D01*
X2918446Y-13817352D01*
X2823208Y-13722114D01*
X2775588Y-13626875D01*
X3775588Y-12293542D02*
X3775588Y-12769733D01*
X2775588Y-12769733D01*
X3251779Y-11960209D02*
X3251779Y-11626875D01*
X3775588Y-11484018D02*
X3775588Y-11960209D01*
X2775588Y-11960209D01*
X2775588Y-11484018D01*
X3775588Y-11055447D02*
X2775588Y-11055447D01*
X2775588Y-10817352D01*
X2823208Y-10674495D01*
X2918446Y-10579256D01*
X3013684Y-10531637D01*
X3204160Y-10484018D01*
X3347017Y-10484018D01*
X3537493Y-10531637D01*
X3632731Y-10579256D01*
X3727969Y-10674495D01*
X3775588Y-10817352D01*
X3775588Y-11055447D01*
%TO.C,SW1*%
X-12800225Y-36296156D02*
X-12657368Y-36343775D01*
X-12419272Y-36343775D01*
X-12324034Y-36296156D01*
X-12276415Y-36248537D01*
X-12228796Y-36153299D01*
X-12228796Y-36058061D01*
X-12276415Y-35962823D01*
X-12324034Y-35915204D01*
X-12419272Y-35867585D01*
X-12609749Y-35819966D01*
X-12704987Y-35772347D01*
X-12752606Y-35724728D01*
X-12800225Y-35629490D01*
X-12800225Y-35534252D01*
X-12752606Y-35439014D01*
X-12704987Y-35391395D01*
X-12609749Y-35343775D01*
X-12371653Y-35343775D01*
X-12228796Y-35391395D01*
X-11895463Y-35343775D02*
X-11657368Y-36343775D01*
X-11466892Y-35629490D01*
X-11276415Y-36343775D01*
X-11038320Y-35343775D01*
X-10133558Y-36343775D02*
X-10704987Y-36343775D01*
X-10419272Y-36343775D02*
X-10419272Y-35343775D01*
X-10514511Y-35486633D01*
X-10609749Y-35581871D01*
X-10704987Y-35629490D01*
D11*
%TO.C,J6*%
X35009831Y-33360228D02*
X35916974Y-33360228D01*
X36098403Y-33420704D01*
X36219355Y-33541656D01*
X36279831Y-33723085D01*
X36279831Y-33844037D01*
X35009831Y-32211180D02*
X35009831Y-32453085D01*
X35070308Y-32574037D01*
X35130784Y-32634514D01*
X35312212Y-32755466D01*
X35554117Y-32815942D01*
X36037927Y-32815942D01*
X36158879Y-32755466D01*
X36219355Y-32694990D01*
X36279831Y-32574037D01*
X36279831Y-32332133D01*
X36219355Y-32211180D01*
X36158879Y-32150704D01*
X36037927Y-32090228D01*
X35735546Y-32090228D01*
X35614593Y-32150704D01*
X35554117Y-32211180D01*
X35493641Y-32332133D01*
X35493641Y-32574037D01*
X35554117Y-32694990D01*
X35614593Y-32755466D01*
X35735546Y-32815942D01*
D12*
%TO.C,Y1*%
X32870298Y-12389885D02*
X33346488Y-12389885D01*
X32346488Y-12723218D02*
X32870298Y-12389885D01*
X32346488Y-12056552D01*
X33346488Y-11199409D02*
X33346488Y-11770837D01*
X33346488Y-11485123D02*
X32346488Y-11485123D01*
X32489346Y-11580361D01*
X32584584Y-11675599D01*
X32632203Y-11770837D01*
%TO.C,J4*%
X27691774Y16676424D02*
X27691774Y15962138D01*
X27644155Y15819281D01*
X27548917Y15724043D01*
X27406060Y15676424D01*
X27310822Y15676424D01*
X28596536Y16343090D02*
X28596536Y15676424D01*
X28358441Y16724043D02*
X28120346Y16009757D01*
X28739393Y16009757D01*
D11*
%TO.C,J5*%
X35009831Y11539771D02*
X35916974Y11539771D01*
X36098403Y11479295D01*
X36219355Y11358343D01*
X36279831Y11176914D01*
X36279831Y11055962D01*
X35009831Y12749295D02*
X35009831Y12144533D01*
X35614593Y12084057D01*
X35554117Y12144533D01*
X35493641Y12265485D01*
X35493641Y12567866D01*
X35554117Y12688819D01*
X35614593Y12749295D01*
X35735546Y12809771D01*
X36037927Y12809771D01*
X36158879Y12749295D01*
X36219355Y12688819D01*
X36279831Y12567866D01*
X36279831Y12265485D01*
X36219355Y12144533D01*
X36158879Y12084057D01*
D12*
%TO.C,C25*%
X31134250Y-24093052D02*
X31181869Y-24140671D01*
X31229488Y-24283528D01*
X31229488Y-24378766D01*
X31181869Y-24521623D01*
X31086631Y-24616861D01*
X30991393Y-24664480D01*
X30800917Y-24712099D01*
X30658060Y-24712099D01*
X30467584Y-24664480D01*
X30372346Y-24616861D01*
X30277108Y-24521623D01*
X30229488Y-24378766D01*
X30229488Y-24283528D01*
X30277108Y-24140671D01*
X30324727Y-24093052D01*
X30324727Y-23712099D02*
X30277108Y-23664480D01*
X30229488Y-23569242D01*
X30229488Y-23331147D01*
X30277108Y-23235909D01*
X30324727Y-23188290D01*
X30419965Y-23140671D01*
X30515203Y-23140671D01*
X30658060Y-23188290D01*
X31229488Y-23759718D01*
X31229488Y-23140671D01*
X30229488Y-22235909D02*
X30229488Y-22712099D01*
X30705679Y-22759718D01*
X30658060Y-22712099D01*
X30610441Y-22616861D01*
X30610441Y-22378766D01*
X30658060Y-22283528D01*
X30705679Y-22235909D01*
X30800917Y-22188290D01*
X31039012Y-22188290D01*
X31134250Y-22235909D01*
X31181869Y-22283528D01*
X31229488Y-22378766D01*
X31229488Y-22616861D01*
X31181869Y-22712099D01*
X31134250Y-22759718D01*
%TO.C,R5*%
X10324688Y-4549061D02*
X9848498Y-4882395D01*
X10324688Y-5120490D02*
X9324688Y-5120490D01*
X9324688Y-4739537D01*
X9372308Y-4644299D01*
X9419927Y-4596680D01*
X9515165Y-4549061D01*
X9658022Y-4549061D01*
X9753260Y-4596680D01*
X9800879Y-4644299D01*
X9848498Y-4739537D01*
X9848498Y-5120490D01*
X9324688Y-3644299D02*
X9324688Y-4120490D01*
X9800879Y-4168109D01*
X9753260Y-4120490D01*
X9705641Y-4025252D01*
X9705641Y-3787156D01*
X9753260Y-3691918D01*
X9800879Y-3644299D01*
X9896117Y-3596680D01*
X10134212Y-3596680D01*
X10229450Y-3644299D01*
X10277069Y-3691918D01*
X10324688Y-3787156D01*
X10324688Y-4025252D01*
X10277069Y-4120490D01*
X10229450Y-4168109D01*
%TO.C,SW4*%
X37408188Y-25178175D02*
X36931998Y-25511509D01*
X37408188Y-25749604D02*
X36408188Y-25749604D01*
X36408188Y-25368652D01*
X36455808Y-25273414D01*
X36503427Y-25225795D01*
X36598665Y-25178175D01*
X36741522Y-25178175D01*
X36836760Y-25225795D01*
X36884379Y-25273414D01*
X36931998Y-25368652D01*
X36931998Y-25749604D01*
X36884379Y-24749604D02*
X36884379Y-24416271D01*
X37408188Y-24273414D02*
X37408188Y-24749604D01*
X36408188Y-24749604D01*
X36408188Y-24273414D01*
X37360569Y-23892461D02*
X37408188Y-23749604D01*
X37408188Y-23511509D01*
X37360569Y-23416271D01*
X37312950Y-23368652D01*
X37217712Y-23321033D01*
X37122474Y-23321033D01*
X37027236Y-23368652D01*
X36979617Y-23416271D01*
X36931998Y-23511509D01*
X36884379Y-23701985D01*
X36836760Y-23797223D01*
X36789141Y-23844842D01*
X36693903Y-23892461D01*
X36598665Y-23892461D01*
X36503427Y-23844842D01*
X36455808Y-23797223D01*
X36408188Y-23701985D01*
X36408188Y-23463890D01*
X36455808Y-23321033D01*
X36884379Y-22892461D02*
X36884379Y-22559128D01*
X37408188Y-22416271D02*
X37408188Y-22892461D01*
X36408188Y-22892461D01*
X36408188Y-22416271D01*
X36408188Y-22130556D02*
X36408188Y-21559128D01*
X37408188Y-21844842D02*
X36408188Y-21844842D01*
%TO.C,R18*%
X34519488Y-19771952D02*
X34043298Y-20105285D01*
X34519488Y-20343380D02*
X33519488Y-20343380D01*
X33519488Y-19962428D01*
X33567108Y-19867190D01*
X33614727Y-19819571D01*
X33709965Y-19771952D01*
X33852822Y-19771952D01*
X33948060Y-19819571D01*
X33995679Y-19867190D01*
X34043298Y-19962428D01*
X34043298Y-20343380D01*
X34519488Y-18819571D02*
X34519488Y-19390999D01*
X34519488Y-19105285D02*
X33519488Y-19105285D01*
X33662346Y-19200523D01*
X33757584Y-19295761D01*
X33805203Y-19390999D01*
X33948060Y-18248142D02*
X33900441Y-18343380D01*
X33852822Y-18390999D01*
X33757584Y-18438618D01*
X33709965Y-18438618D01*
X33614727Y-18390999D01*
X33567108Y-18343380D01*
X33519488Y-18248142D01*
X33519488Y-18057666D01*
X33567108Y-17962428D01*
X33614727Y-17914809D01*
X33709965Y-17867190D01*
X33757584Y-17867190D01*
X33852822Y-17914809D01*
X33900441Y-17962428D01*
X33948060Y-18057666D01*
X33948060Y-18248142D01*
X33995679Y-18343380D01*
X34043298Y-18390999D01*
X34138536Y-18438618D01*
X34329012Y-18438618D01*
X34424250Y-18390999D01*
X34471869Y-18343380D01*
X34519488Y-18248142D01*
X34519488Y-18057666D01*
X34471869Y-17962428D01*
X34424250Y-17914809D01*
X34329012Y-17867190D01*
X34138536Y-17867190D01*
X34043298Y-17914809D01*
X33995679Y-17962428D01*
X33948060Y-18057666D01*
%TO.C,C18*%
X13874950Y-23430737D02*
X13827331Y-23478356D01*
X13684474Y-23525975D01*
X13589236Y-23525975D01*
X13446379Y-23478356D01*
X13351141Y-23383118D01*
X13303522Y-23287880D01*
X13255903Y-23097404D01*
X13255903Y-22954547D01*
X13303522Y-22764071D01*
X13351141Y-22668833D01*
X13446379Y-22573595D01*
X13589236Y-22525975D01*
X13684474Y-22525975D01*
X13827331Y-22573595D01*
X13874950Y-22621214D01*
X14827331Y-23525975D02*
X14255903Y-23525975D01*
X14541617Y-23525975D02*
X14541617Y-22525975D01*
X14446379Y-22668833D01*
X14351141Y-22764071D01*
X14255903Y-22811690D01*
X15398760Y-22954547D02*
X15303522Y-22906928D01*
X15255903Y-22859309D01*
X15208284Y-22764071D01*
X15208284Y-22716452D01*
X15255903Y-22621214D01*
X15303522Y-22573595D01*
X15398760Y-22525975D01*
X15589236Y-22525975D01*
X15684474Y-22573595D01*
X15732093Y-22621214D01*
X15779712Y-22716452D01*
X15779712Y-22764071D01*
X15732093Y-22859309D01*
X15684474Y-22906928D01*
X15589236Y-22954547D01*
X15398760Y-22954547D01*
X15303522Y-23002166D01*
X15255903Y-23049785D01*
X15208284Y-23145023D01*
X15208284Y-23335499D01*
X15255903Y-23430737D01*
X15303522Y-23478356D01*
X15398760Y-23525975D01*
X15589236Y-23525975D01*
X15684474Y-23478356D01*
X15732093Y-23430737D01*
X15779712Y-23335499D01*
X15779712Y-23145023D01*
X15732093Y-23049785D01*
X15684474Y-23002166D01*
X15589236Y-22954547D01*
%TO.C,D2*%
X-790111Y4855009D02*
X-1790111Y4855009D01*
X-1790111Y5093105D01*
X-1742492Y5235962D01*
X-1647253Y5331200D01*
X-1552015Y5378819D01*
X-1361539Y5426438D01*
X-1218682Y5426438D01*
X-1028206Y5378819D01*
X-932968Y5331200D01*
X-837730Y5235962D01*
X-790111Y5093105D01*
X-790111Y4855009D01*
X-1694872Y5807390D02*
X-1742492Y5855009D01*
X-1790111Y5950247D01*
X-1790111Y6188343D01*
X-1742492Y6283581D01*
X-1694872Y6331200D01*
X-1599634Y6378819D01*
X-1504396Y6378819D01*
X-1361539Y6331200D01*
X-790111Y5759771D01*
X-790111Y6378819D01*
%TO.C,R12*%
X12162188Y-24587252D02*
X11685998Y-24920585D01*
X12162188Y-25158680D02*
X11162188Y-25158680D01*
X11162188Y-24777728D01*
X11209808Y-24682490D01*
X11257427Y-24634871D01*
X11352665Y-24587252D01*
X11495522Y-24587252D01*
X11590760Y-24634871D01*
X11638379Y-24682490D01*
X11685998Y-24777728D01*
X11685998Y-25158680D01*
X12162188Y-23634871D02*
X12162188Y-24206299D01*
X12162188Y-23920585D02*
X11162188Y-23920585D01*
X11305046Y-24015823D01*
X11400284Y-24111061D01*
X11447903Y-24206299D01*
X11257427Y-23253918D02*
X11209808Y-23206299D01*
X11162188Y-23111061D01*
X11162188Y-22872966D01*
X11209808Y-22777728D01*
X11257427Y-22730109D01*
X11352665Y-22682490D01*
X11447903Y-22682490D01*
X11590760Y-22730109D01*
X12162188Y-23301537D01*
X12162188Y-22682490D01*
%TO.C,R9*%
X12162188Y-20113461D02*
X11685998Y-20446795D01*
X12162188Y-20684890D02*
X11162188Y-20684890D01*
X11162188Y-20303937D01*
X11209808Y-20208699D01*
X11257427Y-20161080D01*
X11352665Y-20113461D01*
X11495522Y-20113461D01*
X11590760Y-20161080D01*
X11638379Y-20208699D01*
X11685998Y-20303937D01*
X11685998Y-20684890D01*
X12162188Y-19637271D02*
X12162188Y-19446795D01*
X12114569Y-19351556D01*
X12066950Y-19303937D01*
X11924093Y-19208699D01*
X11733617Y-19161080D01*
X11352665Y-19161080D01*
X11257427Y-19208699D01*
X11209808Y-19256318D01*
X11162188Y-19351556D01*
X11162188Y-19542033D01*
X11209808Y-19637271D01*
X11257427Y-19684890D01*
X11352665Y-19732509D01*
X11590760Y-19732509D01*
X11685998Y-19684890D01*
X11733617Y-19637271D01*
X11781236Y-19542033D01*
X11781236Y-19351556D01*
X11733617Y-19256318D01*
X11685998Y-19208699D01*
X11590760Y-19161080D01*
%TO.C,C30*%
X22671850Y9023947D02*
X22719469Y8976328D01*
X22767088Y8833471D01*
X22767088Y8738233D01*
X22719469Y8595376D01*
X22624231Y8500138D01*
X22528993Y8452519D01*
X22338517Y8404900D01*
X22195660Y8404900D01*
X22005184Y8452519D01*
X21909946Y8500138D01*
X21814708Y8595376D01*
X21767088Y8738233D01*
X21767088Y8833471D01*
X21814708Y8976328D01*
X21862327Y9023947D01*
X21767088Y9357281D02*
X21767088Y9976328D01*
X22148041Y9642995D01*
X22148041Y9785852D01*
X22195660Y9881090D01*
X22243279Y9928709D01*
X22338517Y9976328D01*
X22576612Y9976328D01*
X22671850Y9928709D01*
X22719469Y9881090D01*
X22767088Y9785852D01*
X22767088Y9500138D01*
X22719469Y9404900D01*
X22671850Y9357281D01*
X21767088Y10595376D02*
X21767088Y10690614D01*
X21814708Y10785852D01*
X21862327Y10833471D01*
X21957565Y10881090D01*
X22148041Y10928709D01*
X22386136Y10928709D01*
X22576612Y10881090D01*
X22671850Y10833471D01*
X22719469Y10785852D01*
X22767088Y10690614D01*
X22767088Y10595376D01*
X22719469Y10500138D01*
X22671850Y10452519D01*
X22576612Y10404900D01*
X22386136Y10357281D01*
X22148041Y10357281D01*
X21957565Y10404900D01*
X21862327Y10452519D01*
X21814708Y10500138D01*
X21767088Y10595376D01*
%TO.C,R21*%
X12293388Y-5025252D02*
X11817198Y-5358585D01*
X12293388Y-5596680D02*
X11293388Y-5596680D01*
X11293388Y-5215728D01*
X11341008Y-5120490D01*
X11388627Y-5072871D01*
X11483865Y-5025252D01*
X11626722Y-5025252D01*
X11721960Y-5072871D01*
X11769579Y-5120490D01*
X11817198Y-5215728D01*
X11817198Y-5596680D01*
X11388627Y-4644299D02*
X11341008Y-4596680D01*
X11293388Y-4501442D01*
X11293388Y-4263347D01*
X11341008Y-4168109D01*
X11388627Y-4120490D01*
X11483865Y-4072871D01*
X11579103Y-4072871D01*
X11721960Y-4120490D01*
X12293388Y-4691918D01*
X12293388Y-4072871D01*
X12293388Y-3120490D02*
X12293388Y-3691918D01*
X12293388Y-3406204D02*
X11293388Y-3406204D01*
X11436246Y-3501442D01*
X11531484Y-3596680D01*
X11579103Y-3691918D01*
%TO.C,C5*%
X36830041Y1986662D02*
X36782422Y1939043D01*
X36639565Y1891424D01*
X36544327Y1891424D01*
X36401469Y1939043D01*
X36306231Y2034281D01*
X36258612Y2129519D01*
X36210993Y2319995D01*
X36210993Y2462852D01*
X36258612Y2653328D01*
X36306231Y2748566D01*
X36401469Y2843805D01*
X36544327Y2891424D01*
X36639565Y2891424D01*
X36782422Y2843805D01*
X36830041Y2796185D01*
X37734803Y2891424D02*
X37258612Y2891424D01*
X37210993Y2415233D01*
X37258612Y2462852D01*
X37353850Y2510471D01*
X37591946Y2510471D01*
X37687184Y2462852D01*
X37734803Y2415233D01*
X37782422Y2319995D01*
X37782422Y2081900D01*
X37734803Y1986662D01*
X37687184Y1939043D01*
X37591946Y1891424D01*
X37353850Y1891424D01*
X37258612Y1939043D01*
X37210993Y1986662D01*
%TO.C,C27*%
X23034650Y-15069052D02*
X23082269Y-15116671D01*
X23129888Y-15259528D01*
X23129888Y-15354766D01*
X23082269Y-15497623D01*
X22987031Y-15592861D01*
X22891793Y-15640480D01*
X22701317Y-15688099D01*
X22558460Y-15688099D01*
X22367984Y-15640480D01*
X22272746Y-15592861D01*
X22177508Y-15497623D01*
X22129888Y-15354766D01*
X22129888Y-15259528D01*
X22177508Y-15116671D01*
X22225127Y-15069052D01*
X22225127Y-14688099D02*
X22177508Y-14640480D01*
X22129888Y-14545242D01*
X22129888Y-14307147D01*
X22177508Y-14211909D01*
X22225127Y-14164290D01*
X22320365Y-14116671D01*
X22415603Y-14116671D01*
X22558460Y-14164290D01*
X23129888Y-14735718D01*
X23129888Y-14116671D01*
X22129888Y-13783337D02*
X22129888Y-13116671D01*
X23129888Y-13545242D01*
%TO.C,C13*%
X-1602749Y3685747D02*
X-1555130Y3638128D01*
X-1507511Y3495271D01*
X-1507511Y3400033D01*
X-1555130Y3257176D01*
X-1650368Y3161938D01*
X-1745606Y3114319D01*
X-1936082Y3066700D01*
X-2078939Y3066700D01*
X-2269415Y3114319D01*
X-2364653Y3161938D01*
X-2459892Y3257176D01*
X-2507511Y3400033D01*
X-2507511Y3495271D01*
X-2459892Y3638128D01*
X-2412272Y3685747D01*
X-1507511Y4638128D02*
X-1507511Y4066700D01*
X-1507511Y4352414D02*
X-2507511Y4352414D01*
X-2364653Y4257176D01*
X-2269415Y4161938D01*
X-2221796Y4066700D01*
X-2507511Y4971462D02*
X-2507511Y5590509D01*
X-2126558Y5257176D01*
X-2126558Y5400033D01*
X-2078939Y5495271D01*
X-2031320Y5542890D01*
X-1936082Y5590509D01*
X-1697987Y5590509D01*
X-1602749Y5542890D01*
X-1555130Y5495271D01*
X-1507511Y5400033D01*
X-1507511Y5114319D01*
X-1555130Y5019081D01*
X-1602749Y4971462D01*
%TO.C,C32*%
X23641850Y-33627952D02*
X23689469Y-33675571D01*
X23737088Y-33818428D01*
X23737088Y-33913666D01*
X23689469Y-34056523D01*
X23594231Y-34151761D01*
X23498993Y-34199380D01*
X23308517Y-34246999D01*
X23165660Y-34246999D01*
X22975184Y-34199380D01*
X22879946Y-34151761D01*
X22784708Y-34056523D01*
X22737088Y-33913666D01*
X22737088Y-33818428D01*
X22784708Y-33675571D01*
X22832327Y-33627952D01*
X22737088Y-33294618D02*
X22737088Y-32675571D01*
X23118041Y-33008904D01*
X23118041Y-32866047D01*
X23165660Y-32770809D01*
X23213279Y-32723190D01*
X23308517Y-32675571D01*
X23546612Y-32675571D01*
X23641850Y-32723190D01*
X23689469Y-32770809D01*
X23737088Y-32866047D01*
X23737088Y-33151761D01*
X23689469Y-33246999D01*
X23641850Y-33294618D01*
X22832327Y-32294618D02*
X22784708Y-32246999D01*
X22737088Y-32151761D01*
X22737088Y-31913666D01*
X22784708Y-31818428D01*
X22832327Y-31770809D01*
X22927565Y-31723190D01*
X23022803Y-31723190D01*
X23165660Y-31770809D01*
X23737088Y-32342237D01*
X23737088Y-31723190D01*
%TO.C,C1*%
X36830041Y4785162D02*
X36782422Y4737543D01*
X36639565Y4689924D01*
X36544327Y4689924D01*
X36401469Y4737543D01*
X36306231Y4832781D01*
X36258612Y4928019D01*
X36210993Y5118495D01*
X36210993Y5261352D01*
X36258612Y5451828D01*
X36306231Y5547066D01*
X36401469Y5642305D01*
X36544327Y5689924D01*
X36639565Y5689924D01*
X36782422Y5642305D01*
X36830041Y5594685D01*
X37782422Y4689924D02*
X37210993Y4689924D01*
X37496708Y4689924D02*
X37496708Y5689924D01*
X37401469Y5547066D01*
X37306231Y5451828D01*
X37210993Y5404209D01*
%TO.C,C17*%
X8651750Y-20618752D02*
X8699369Y-20666371D01*
X8746988Y-20809228D01*
X8746988Y-20904466D01*
X8699369Y-21047323D01*
X8604131Y-21142561D01*
X8508893Y-21190180D01*
X8318417Y-21237799D01*
X8175560Y-21237799D01*
X7985084Y-21190180D01*
X7889846Y-21142561D01*
X7794608Y-21047323D01*
X7746988Y-20904466D01*
X7746988Y-20809228D01*
X7794608Y-20666371D01*
X7842227Y-20618752D01*
X8746988Y-19666371D02*
X8746988Y-20237799D01*
X8746988Y-19952085D02*
X7746988Y-19952085D01*
X7889846Y-20047323D01*
X7985084Y-20142561D01*
X8032703Y-20237799D01*
X7746988Y-19333037D02*
X7746988Y-18666371D01*
X8746988Y-19094942D01*
%TO.C,R14*%
X13854250Y-25596475D02*
X13520917Y-25120285D01*
X13282822Y-25596475D02*
X13282822Y-24596475D01*
X13663774Y-24596475D01*
X13759012Y-24644095D01*
X13806631Y-24691714D01*
X13854250Y-24786952D01*
X13854250Y-24929809D01*
X13806631Y-25025047D01*
X13759012Y-25072666D01*
X13663774Y-25120285D01*
X13282822Y-25120285D01*
X14806631Y-25596475D02*
X14235203Y-25596475D01*
X14520917Y-25596475D02*
X14520917Y-24596475D01*
X14425679Y-24739333D01*
X14330441Y-24834571D01*
X14235203Y-24882190D01*
X15663774Y-24929809D02*
X15663774Y-25596475D01*
X15425679Y-24548856D02*
X15187584Y-25263142D01*
X15806631Y-25263142D01*
%TO.C,C16*%
X15449050Y-14943737D02*
X15401431Y-14991356D01*
X15258574Y-15038975D01*
X15163336Y-15038975D01*
X15020479Y-14991356D01*
X14925241Y-14896118D01*
X14877622Y-14800880D01*
X14830003Y-14610404D01*
X14830003Y-14467547D01*
X14877622Y-14277071D01*
X14925241Y-14181833D01*
X15020479Y-14086595D01*
X15163336Y-14038975D01*
X15258574Y-14038975D01*
X15401431Y-14086595D01*
X15449050Y-14134214D01*
X16401431Y-15038975D02*
X15830003Y-15038975D01*
X16115717Y-15038975D02*
X16115717Y-14038975D01*
X16020479Y-14181833D01*
X15925241Y-14277071D01*
X15830003Y-14324690D01*
X17258574Y-14038975D02*
X17068098Y-14038975D01*
X16972860Y-14086595D01*
X16925241Y-14134214D01*
X16830003Y-14277071D01*
X16782384Y-14467547D01*
X16782384Y-14848499D01*
X16830003Y-14943737D01*
X16877622Y-14991356D01*
X16972860Y-15038975D01*
X17163336Y-15038975D01*
X17258574Y-14991356D01*
X17306193Y-14943737D01*
X17353812Y-14848499D01*
X17353812Y-14610404D01*
X17306193Y-14515166D01*
X17258574Y-14467547D01*
X17163336Y-14419928D01*
X16972860Y-14419928D01*
X16877622Y-14467547D01*
X16830003Y-14515166D01*
X16782384Y-14610404D01*
D13*
%TO.C,J7*%
X36955308Y13483105D02*
X36955308Y7903105D01*
X36955308Y7903105D02*
X39455308Y7903105D01*
X38205308Y13483105D02*
X36955308Y13483105D01*
X39455308Y7903105D02*
X39455308Y11963105D01*
D14*
%TO.C,R10*%
X31096208Y-355195D02*
X31096208Y4384805D01*
X18846208Y2014805D02*
X18956208Y2014805D01*
X31206208Y2014805D02*
X31096208Y2014805D01*
X18956208Y4384805D02*
X18956208Y-355195D01*
X18956208Y-355195D02*
X31096208Y-355195D01*
X31096208Y4384805D02*
X18956208Y4384805D01*
%TO.C,C23*%
X7374908Y-23659943D02*
X7374908Y-24182447D01*
X5904908Y-23659943D02*
X5904908Y-24182447D01*
%TO.C,C28*%
X23612408Y-8978343D02*
X23612408Y-10400847D01*
X25432408Y-8978343D02*
X25432408Y-10400847D01*
%TO.C,SW2*%
X-2283892Y-30891395D02*
X-2283892Y-32391395D01*
X-1033892Y-34891395D02*
X3466108Y-34891395D01*
X4716108Y-32391395D02*
X4716108Y-30891395D01*
X3466108Y-28391395D02*
X-1033892Y-28391395D01*
D12*
%TO.C,IC1*%
X11950708Y-8929595D02*
X11950708Y-9129595D01*
X16100708Y-14079595D02*
X11950708Y-14079595D01*
X16100708Y-14079595D02*
X16100708Y-13879595D01*
X16100708Y-13879595D02*
X17400708Y-13879595D01*
X16100708Y-8929595D02*
X16100708Y-9129595D01*
X11950708Y-14079595D02*
X11950708Y-13879595D01*
X16100708Y-8929595D02*
X11950708Y-8929595D01*
D14*
%TO.C,R22*%
X21376772Y-4731395D02*
X20922644Y-4731395D01*
X21376772Y-3261395D02*
X20922644Y-3261395D01*
%TO.C,L2*%
X15958908Y-35061695D02*
X11958908Y-35061695D01*
X11958908Y-30841695D02*
X15958908Y-30841695D01*
%TO.C,D4*%
X29044208Y-3020095D02*
X24744208Y-3020095D01*
X24744208Y-5020095D02*
X29044208Y-5020095D01*
X24744208Y-3020095D02*
X24744208Y-5020095D01*
%TO.C,C15*%
X6545660Y-12573495D02*
X6023156Y-12573495D01*
X6545660Y-11103495D02*
X6023156Y-11103495D01*
%TO.C,C9*%
X19895208Y-12068943D02*
X19895208Y-12591447D01*
X21365208Y-12068943D02*
X21365208Y-12591447D01*
%TO.C,R4*%
X10121608Y-4609459D02*
X10121608Y-4155331D01*
X11591608Y-4609459D02*
X11591608Y-4155331D01*
%TO.C,R6*%
X6322908Y-4155331D02*
X6322908Y-4609459D01*
X4852908Y-4155331D02*
X4852908Y-4609459D01*
D13*
%TO.C,J8*%
X36955308Y-31416895D02*
X36955308Y-36996895D01*
X39455308Y-36996895D02*
X39455308Y-32936895D01*
X36955308Y-36996895D02*
X39455308Y-36996895D01*
X38205308Y-31416895D02*
X36955308Y-31416895D01*
%TO.C,J1*%
X37037708Y-16857195D02*
X38287708Y-16857195D01*
X38287708Y-3657195D02*
X35787708Y-3657195D01*
X35787708Y-3657195D02*
X35787708Y-15337195D01*
X38287708Y-16857195D02*
X38287708Y-3657195D01*
D15*
%TO.C,SW3*%
X-5254992Y-18973695D02*
X-3004992Y-18973695D01*
X-15504992Y-5573695D02*
X-13254992Y-5573695D01*
X-5254992Y-5573695D02*
X-3004992Y-5573695D01*
X-3004992Y-18973695D02*
X-3004992Y-15273695D01*
X-15504992Y-18973695D02*
X-13254992Y-18973695D01*
X-3004992Y-5573695D02*
X-3004992Y-9273695D01*
X-15504992Y-15273695D02*
X-15504992Y-18973695D01*
X-15504992Y-9273695D02*
X-15504992Y-5573695D01*
D14*
%TO.C,L1*%
X8849708Y-152295D02*
X11349708Y-152295D01*
X11349708Y8247705D02*
X8849708Y8247705D01*
%TO.C,C31*%
X28137608Y-34237095D02*
X26365608Y-34237095D01*
X32336608Y-33316095D02*
X30217608Y-33316095D01*
X28137608Y-34157095D02*
X26321608Y-34157095D01*
X32011608Y-34197095D02*
X30217608Y-34197095D01*
X32407608Y-32676095D02*
X25947608Y-32676095D01*
X28137608Y-34277095D02*
X26387608Y-34277095D01*
X32405608Y-32756095D02*
X25949608Y-32756095D01*
X28137608Y-33837095D02*
X26175608Y-33837095D01*
X31841608Y-34477095D02*
X30217608Y-34477095D01*
X28137608Y-34357095D02*
X26435608Y-34357095D01*
X28137608Y-32996095D02*
X25966608Y-32996095D01*
X32147608Y-33917095D02*
X30217608Y-33917095D01*
X28137608Y-33877095D02*
X26191608Y-33877095D01*
X28137608Y-33196095D02*
X25995608Y-33196095D01*
X28137608Y-34797095D02*
X26761608Y-34797095D01*
X28137608Y-34517095D02*
X26541608Y-34517095D01*
X31401608Y-34997095D02*
X26953608Y-34997095D01*
X32344608Y-33276095D02*
X30217608Y-33276095D01*
X30609608Y-35557095D02*
X27745608Y-35557095D01*
X28137608Y-33236095D02*
X26002608Y-33236095D01*
X32033608Y-34157095D02*
X30217608Y-34157095D01*
X28137608Y-34557095D02*
X26570608Y-34557095D01*
X28137608Y-33036095D02*
X25971608Y-33036095D01*
X32407608Y-32636095D02*
X25947608Y-32636095D01*
X28137608Y-34477095D02*
X26513608Y-34477095D01*
X28137608Y-34437095D02*
X26487608Y-34437095D01*
X28137608Y-32956095D02*
X25962608Y-32956095D01*
X28137608Y-34037095D02*
X26261608Y-34037095D01*
X28137608Y-33797095D02*
X26159608Y-33797095D01*
X32053608Y-34117095D02*
X30217608Y-34117095D01*
X31693608Y-34677095D02*
X30217608Y-34677095D01*
X28137608Y-33677095D02*
X26116608Y-33677095D01*
X30117608Y-35757095D02*
X28237608Y-35757095D01*
X32210608Y-33757095D02*
X30217608Y-33757095D01*
X32327608Y-33357095D02*
X30217608Y-33357095D01*
X31627608Y-34757095D02*
X30217608Y-34757095D01*
X28137608Y-33357095D02*
X26027608Y-33357095D01*
X28137608Y-33156095D02*
X25988608Y-33156095D01*
X31067608Y-35277095D02*
X27287608Y-35277095D01*
X28137608Y-34757095D02*
X26727608Y-34757095D01*
X28137608Y-33557095D02*
X26079608Y-33557095D01*
X28137608Y-33957095D02*
X26225608Y-33957095D01*
X32163608Y-33877095D02*
X30217608Y-33877095D01*
X30758608Y-35477095D02*
X27596608Y-35477095D01*
X30527608Y-35597095D02*
X27827608Y-35597095D01*
X32287608Y-33517095D02*
X30217608Y-33517095D01*
X31661608Y-34717095D02*
X30217608Y-34717095D01*
X28137608Y-34677095D02*
X26661608Y-34677095D01*
X30439608Y-35637095D02*
X27915608Y-35637095D01*
X31557608Y-34837095D02*
X30217608Y-34837095D01*
X32073608Y-34077095D02*
X30217608Y-34077095D01*
X32318608Y-33397095D02*
X30217608Y-33397095D01*
X28137608Y-33437095D02*
X26046608Y-33437095D01*
X31989608Y-34237095D02*
X30217608Y-34237095D01*
X28137608Y-33517095D02*
X26067608Y-33517095D01*
X32195608Y-33797095D02*
X30217608Y-33797095D01*
X32179608Y-33837095D02*
X30217608Y-33837095D01*
X28137608Y-34117095D02*
X26301608Y-34117095D01*
X32407608Y-32716095D02*
X25947608Y-32716095D01*
X32378608Y-33076095D02*
X30217608Y-33076095D01*
X31893608Y-34397095D02*
X30217608Y-34397095D01*
X30891608Y-35397095D02*
X27463608Y-35397095D01*
X28137608Y-33757095D02*
X26144608Y-33757095D01*
X31867608Y-34437095D02*
X30217608Y-34437095D01*
X32404608Y-32796095D02*
X25950608Y-32796095D01*
X30342608Y-35677095D02*
X28012608Y-35677095D01*
X32366608Y-33156095D02*
X30217608Y-33156095D01*
X28137608Y-34597095D02*
X26599608Y-34597095D01*
X28137608Y-32916095D02*
X25959608Y-32916095D01*
X31269608Y-35117095D02*
X27085608Y-35117095D01*
X30686608Y-35517095D02*
X27668608Y-35517095D01*
X28137608Y-32876095D02*
X25955608Y-32876095D01*
X31221608Y-35157095D02*
X27133608Y-35157095D01*
X32308608Y-33437095D02*
X30217608Y-33437095D01*
X30953608Y-35357095D02*
X27401608Y-35357095D01*
X29979608Y-35797095D02*
X28375608Y-35797095D01*
X31755608Y-34597095D02*
X30217608Y-34597095D01*
X28137608Y-33717095D02*
X26130608Y-33717095D01*
X32238608Y-33677095D02*
X30217608Y-33677095D01*
X28137608Y-33637095D02*
X26103608Y-33637095D01*
X32372608Y-33116095D02*
X30217608Y-33116095D01*
X31784608Y-34557095D02*
X30217608Y-34557095D01*
X28137608Y-33997095D02*
X26243608Y-33997095D01*
X28137608Y-33276095D02*
X26010608Y-33276095D01*
X31359608Y-35037095D02*
X26995608Y-35037095D01*
X31172608Y-35197095D02*
X27182608Y-35197095D01*
X32263608Y-33597095D02*
X30217608Y-33597095D01*
X32352608Y-33236095D02*
X30217608Y-33236095D01*
X28137608Y-33397095D02*
X26036608Y-33397095D01*
X28137608Y-33477095D02*
X26056608Y-33477095D01*
X32401608Y-32836095D02*
X25953608Y-32836095D01*
X31016608Y-29135854D02*
X31016608Y-29765854D01*
X32224608Y-33717095D02*
X30217608Y-33717095D01*
X31482608Y-34917095D02*
X30217608Y-34917095D01*
X28137608Y-34197095D02*
X26343608Y-34197095D01*
X28137608Y-34877095D02*
X26834608Y-34877095D01*
X32388608Y-32996095D02*
X30217608Y-32996095D01*
X29579608Y-35877095D02*
X28775608Y-35877095D01*
X32395608Y-32916095D02*
X30217608Y-32916095D01*
X31442608Y-34957095D02*
X26912608Y-34957095D01*
X32129608Y-33957095D02*
X30217608Y-33957095D01*
X28137608Y-33116095D02*
X25982608Y-33116095D01*
X32093608Y-34037095D02*
X30217608Y-34037095D01*
X31813608Y-34517095D02*
X30217608Y-34517095D01*
X31725608Y-34637095D02*
X30217608Y-34637095D01*
X32251608Y-33637095D02*
X30217608Y-33637095D01*
X31121608Y-35237095D02*
X27233608Y-35237095D01*
X32399608Y-32876095D02*
X30217608Y-32876095D01*
X28137608Y-34837095D02*
X26797608Y-34837095D01*
X29810608Y-35837095D02*
X28544608Y-35837095D01*
X28137608Y-34077095D02*
X26281608Y-34077095D01*
X28137608Y-34637095D02*
X26629608Y-34637095D01*
X28137608Y-34917095D02*
X26872608Y-34917095D01*
X28137608Y-34317095D02*
X26411608Y-34317095D01*
X32359608Y-33196095D02*
X30217608Y-33196095D01*
X31314608Y-35077095D02*
X27040608Y-35077095D01*
X28137608Y-33076095D02*
X25976608Y-33076095D01*
X32111608Y-33997095D02*
X30217608Y-33997095D01*
X32383608Y-33036095D02*
X30217608Y-33036095D01*
X31943608Y-34317095D02*
X30217608Y-34317095D01*
X28137608Y-34397095D02*
X26461608Y-34397095D01*
X28137608Y-34717095D02*
X26693608Y-34717095D01*
X32392608Y-32956095D02*
X30217608Y-32956095D01*
X31331608Y-29450854D02*
X30701608Y-29450854D01*
X28137608Y-33917095D02*
X26207608Y-33917095D01*
X31011608Y-35317095D02*
X27343608Y-35317095D01*
X30236608Y-35717095D02*
X28118608Y-35717095D01*
X28137608Y-33597095D02*
X26091608Y-33597095D01*
X28137608Y-33316095D02*
X26018608Y-33316095D01*
X31967608Y-34277095D02*
X30217608Y-34277095D01*
X31593608Y-34797095D02*
X30217608Y-34797095D01*
X32275608Y-33557095D02*
X30217608Y-33557095D01*
X31919608Y-34357095D02*
X30217608Y-34357095D01*
X31520608Y-34877095D02*
X30217608Y-34877095D01*
X30827608Y-35437095D02*
X27527608Y-35437095D01*
X32298608Y-33477095D02*
X30217608Y-33477095D01*
X32447608Y-32636095D02*
G75*
G03*
X32447608Y-32636095I-3270000J0D01*
G01*
%TO.C,R19*%
X33232108Y-27998359D02*
X33232108Y-27544231D01*
X31762108Y-27998359D02*
X31762108Y-27544231D01*
%TO.C,R11*%
X6077344Y-8285295D02*
X6531472Y-8285295D01*
X6077344Y-9755295D02*
X6531472Y-9755295D01*
%TO.C,C21*%
X18982108Y-33289743D02*
X18982108Y-33812247D01*
X17512108Y-33289743D02*
X17512108Y-33812247D01*
%TO.C,R13*%
X14228844Y-20720695D02*
X14682972Y-20720695D01*
X14228844Y-22190695D02*
X14682972Y-22190695D01*
%TO.C,D1*%
X6315808Y12554305D02*
X11715808Y12554305D01*
X6315808Y12554305D02*
X6315808Y9254305D01*
X6315808Y9254305D02*
X11715808Y9254305D01*
%TO.C,U5*%
X20935008Y-25776295D02*
X20935008Y-26251295D01*
X26155008Y-25776295D02*
X26155008Y-26251295D01*
X20935008Y-26251295D02*
X21410008Y-26251295D01*
X26155008Y-21506295D02*
X26155008Y-21031295D01*
X20935008Y-21031295D02*
X21410008Y-21031295D01*
X26155008Y-26251295D02*
X25680008Y-26251295D01*
X20935008Y-21506295D02*
X20935008Y-21031295D01*
%TO.C,C14*%
X1020674Y10952461D02*
X1543178Y10952461D01*
X1020674Y9482461D02*
X1543178Y9482461D01*
D12*
%TO.C,OL1*%
X73208Y-7224495D02*
X73208Y-17124495D01*
X73208Y-7224495D02*
X2373208Y-7224495D01*
X2373208Y-17124495D02*
X73208Y-17124495D01*
X2373208Y-7224495D02*
X2373208Y-17124495D01*
D14*
%TO.C,SW1*%
X-9216892Y-28391395D02*
X-13716892Y-28391395D01*
X-13716892Y-34891395D02*
X-9216892Y-34891395D01*
X-14966892Y-30891395D02*
X-14966892Y-32391395D01*
X-7966892Y-32391395D02*
X-7966892Y-30891395D01*
D13*
%TO.C,J6*%
X36955308Y-36996895D02*
X36955308Y-32936895D01*
X34455308Y-31416895D02*
X34455308Y-36996895D01*
X35705308Y-31416895D02*
X34455308Y-31416895D01*
X34455308Y-36996895D02*
X36955308Y-36996895D01*
D14*
%TO.C,Y1*%
X31894108Y-9663695D02*
X31894108Y-14163695D01*
X27994108Y-9663695D02*
X27994108Y-14163695D01*
X27994108Y-14163695D02*
G75*
G03*
X31894108Y-14163695I1950000J0D01*
G01*
X31894108Y-9663695D02*
G75*
G03*
X27994108Y-9663695I-1950000J0D01*
G01*
%TO.C,J4*%
X33105108Y7238805D02*
X33105108Y14858805D01*
X33105108Y8508805D02*
X22945108Y8508805D01*
X22945108Y7238805D02*
X33105108Y7238805D01*
X22945108Y14858805D02*
X22945108Y7238805D01*
X33105108Y14858805D02*
X22945108Y14858805D01*
D13*
%TO.C,J5*%
X35705308Y13483105D02*
X34455308Y13483105D01*
X36955308Y7903105D02*
X36955308Y11963105D01*
X34455308Y13483105D02*
X34455308Y7903105D01*
X34455308Y7903105D02*
X36955308Y7903105D01*
D14*
%TO.C,C25*%
X31722108Y-23711447D02*
X31722108Y-23188943D01*
X33192108Y-23711447D02*
X33192108Y-23188943D01*
%TO.C,R5*%
X7487308Y-4155331D02*
X7487308Y-4609459D01*
X8957308Y-4155331D02*
X8957308Y-4609459D01*
D12*
%TO.C,SW4*%
X38555808Y-26575795D02*
X38305808Y-26575795D01*
X38555808Y-20875795D02*
X38305808Y-20875795D01*
X35355808Y-26575795D02*
X35605808Y-26575795D01*
X38555808Y-20875795D02*
X38555808Y-26575795D01*
X35355808Y-20875795D02*
X35355808Y-26575795D01*
X35355808Y-20875795D02*
X35605808Y-20875795D01*
D14*
%TO.C,R18*%
X31682108Y-18902031D02*
X31682108Y-19356159D01*
X33152108Y-18902031D02*
X33152108Y-19356159D01*
%TO.C,C18*%
X14256556Y-24018595D02*
X14779060Y-24018595D01*
X14256556Y-25488595D02*
X14779060Y-25488595D01*
%TO.C,D2*%
X-2092492Y10393105D02*
X-2092492Y1993105D01*
X-8592492Y10393105D02*
X-2092492Y10393105D01*
X-8592492Y10393105D02*
X-8592492Y1993105D01*
%TO.C,R12*%
X10794808Y-23717331D02*
X10794808Y-24171459D01*
X9324808Y-23717331D02*
X9324808Y-24171459D01*
%TO.C,R9*%
X10794808Y-19719731D02*
X10794808Y-20173859D01*
X9324808Y-19719731D02*
X9324808Y-20173859D01*
%TO.C,C30*%
X17524708Y9186805D02*
X16028708Y9186805D01*
X21125708Y9346805D02*
X19604708Y9346805D01*
X17524708Y8065805D02*
X16529708Y8065805D01*
X21075708Y9066805D02*
X19604708Y9066805D01*
X20289708Y12221580D02*
X19789708Y12221580D01*
X21065708Y9026805D02*
X19604708Y9026805D01*
X20992708Y8785805D02*
X19604708Y8785805D01*
X20893708Y8545805D02*
X19604708Y8545805D01*
X17524708Y7385805D02*
X17313708Y7385805D01*
X17524708Y8025805D02*
X16560708Y8025805D01*
X21129708Y9386805D02*
X19604708Y9386805D01*
X20978708Y8745805D02*
X19604708Y8745805D01*
X17524708Y9306805D02*
X16008708Y9306805D01*
X17524708Y9266805D02*
X16014708Y9266805D01*
X21107708Y9226805D02*
X19604708Y9226805D01*
X17524708Y7865805D02*
X16700708Y7865805D01*
X19815708Y7385805D02*
X19604708Y7385805D01*
X17524708Y7585805D02*
X17010708Y7585805D01*
X17524708Y9346805D02*
X16003708Y9346805D01*
X20007708Y7505805D02*
X19604708Y7505805D01*
X20629708Y8105805D02*
X19604708Y8105805D01*
X17524708Y7985805D02*
X16593708Y7985805D01*
X17524708Y8425805D02*
X16296708Y8425805D01*
X21006708Y8825805D02*
X19604708Y8825805D01*
X18848708Y7065805D02*
X18280708Y7065805D01*
X20788708Y8345805D02*
X19604708Y8345805D01*
X17524708Y8585805D02*
X16216708Y8585805D01*
X21133708Y9426805D02*
X19604708Y9426805D01*
X21100708Y9186805D02*
X19604708Y9186805D01*
X17524708Y7825805D02*
X16738708Y7825805D01*
X17524708Y8705805D02*
X16166708Y8705805D01*
X21055708Y8986805D02*
X19604708Y8986805D01*
X21084708Y9106805D02*
X19604708Y9106805D01*
X17524708Y8905805D02*
X16096708Y8905805D01*
X19369708Y7185805D02*
X17759708Y7185805D01*
X21114708Y9266805D02*
X19604708Y9266805D01*
X17524708Y8745805D02*
X16150708Y8745805D01*
X19479708Y7225805D02*
X17649708Y7225805D01*
X17524708Y7945805D02*
X16627708Y7945805D01*
X17524708Y8505805D02*
X16254708Y8505805D01*
X20169708Y7625805D02*
X19604708Y7625805D01*
X17524708Y9026805D02*
X16063708Y9026805D01*
X17524708Y9066805D02*
X16053708Y9066805D01*
X19575708Y7265805D02*
X17553708Y7265805D01*
X17524708Y8625805D02*
X16199708Y8625805D01*
X20764708Y8305805D02*
X19604708Y8305805D01*
X20832708Y8425805D02*
X19604708Y8425805D01*
X17524708Y8545805D02*
X16235708Y8545805D01*
X21032708Y8905805D02*
X19604708Y8905805D01*
X17524708Y7665805D02*
X16911708Y7665805D01*
X20535708Y7985805D02*
X19604708Y7985805D01*
X20946708Y8665805D02*
X19604708Y8665805D01*
X20962708Y8705805D02*
X19604708Y8705805D01*
X17524708Y7745805D02*
X16821708Y7745805D01*
X21140708Y9506805D02*
X15988708Y9506805D01*
X20739708Y8265805D02*
X19604708Y8265805D01*
X17524708Y7545805D02*
X17064708Y7545805D01*
X20599708Y8065805D02*
X19604708Y8065805D01*
X20929708Y8625805D02*
X19604708Y8625805D01*
X20854708Y8465805D02*
X19604708Y8465805D01*
X20307708Y7745805D02*
X19604708Y7745805D01*
X17524708Y8825805D02*
X16122708Y8825805D01*
X19883708Y7425805D02*
X19604708Y7425805D01*
X17524708Y7905805D02*
X16663708Y7905805D01*
X20659708Y8145805D02*
X19604708Y8145805D01*
X17524708Y8185805D02*
X16442708Y8185805D01*
X17524708Y8665805D02*
X16182708Y8665805D01*
X21019708Y8865805D02*
X19604708Y8865805D01*
X20349708Y7785805D02*
X19604708Y7785805D01*
X20064708Y7545805D02*
X19604708Y7545805D01*
X17524708Y9146805D02*
X16036708Y9146805D01*
X17524708Y7505805D02*
X17121708Y7505805D01*
X17524708Y8986805D02*
X16073708Y8986805D01*
X17524708Y7705805D02*
X16865708Y7705805D01*
X17524708Y9386805D02*
X15999708Y9386805D01*
X19742708Y7345805D02*
X17386708Y7345805D01*
X17524708Y7465805D02*
X17181708Y7465805D01*
X20568708Y8025805D02*
X19604708Y8025805D01*
X21144708Y9666805D02*
X15984708Y9666805D01*
X17524708Y9226805D02*
X16021708Y9226805D01*
X20713708Y8225805D02*
X19604708Y8225805D01*
X17524708Y8105805D02*
X16499708Y8105805D01*
X20874708Y8505805D02*
X19604708Y8505805D01*
X21092708Y9146805D02*
X19604708Y9146805D01*
X20263708Y7705805D02*
X19604708Y7705805D01*
X21142708Y9546805D02*
X15986708Y9546805D01*
X17524708Y8465805D02*
X16274708Y8465805D01*
X17524708Y9106805D02*
X16044708Y9106805D01*
X17524708Y8225805D02*
X16415708Y8225805D01*
X21144708Y9626805D02*
X15984708Y9626805D01*
X19662708Y7305805D02*
X17466708Y7305805D01*
X17524708Y7425805D02*
X17245708Y7425805D01*
X20217708Y7665805D02*
X19604708Y7665805D01*
X20428708Y7865805D02*
X19604708Y7865805D01*
X17524708Y8145805D02*
X16469708Y8145805D01*
X19947708Y7465805D02*
X19604708Y7465805D01*
X21137708Y9466805D02*
X15991708Y9466805D01*
X17524708Y8785805D02*
X16136708Y8785805D01*
X17524708Y7625805D02*
X16959708Y7625805D01*
X19241708Y7145805D02*
X17887708Y7145805D01*
X21143708Y9586805D02*
X15985708Y9586805D01*
X21120708Y9306805D02*
X19604708Y9306805D01*
X19082708Y7105805D02*
X18046708Y7105805D01*
X20039708Y12471580D02*
X20039708Y11971580D01*
X17524708Y8385805D02*
X16317708Y8385805D01*
X20811708Y8385805D02*
X19604708Y8385805D01*
X20118708Y7585805D02*
X19604708Y7585805D01*
X20390708Y7825805D02*
X19604708Y7825805D01*
X20465708Y7905805D02*
X19604708Y7905805D01*
X17524708Y8305805D02*
X16364708Y8305805D01*
X17524708Y8345805D02*
X16340708Y8345805D01*
X20686708Y8185805D02*
X19604708Y8185805D01*
X17524708Y8865805D02*
X16109708Y8865805D01*
X21044708Y8945805D02*
X19604708Y8945805D01*
X20912708Y8585805D02*
X19604708Y8585805D01*
X17524708Y7785805D02*
X16779708Y7785805D01*
X17524708Y8265805D02*
X16389708Y8265805D01*
X20501708Y7945805D02*
X19604708Y7945805D01*
X17524708Y8945805D02*
X16084708Y8945805D01*
X17524708Y9426805D02*
X15995708Y9426805D01*
X21184708Y9666805D02*
G75*
G03*
X21184708Y9666805I-2620000J0D01*
G01*
%TO.C,R21*%
X12756008Y-4609459D02*
X12756008Y-4155331D01*
X14226008Y-4609459D02*
X14226008Y-4155331D01*
%TO.C,C5*%
X36735456Y1398805D02*
X37257960Y1398805D01*
X36735456Y-71195D02*
X37257960Y-71195D01*
%TO.C,C27*%
X25437508Y-15137447D02*
X25437508Y-13714943D01*
X23617508Y-15137447D02*
X23617508Y-13714943D01*
%TO.C,C13*%
X2830108Y4968605D02*
X4291108Y4968605D01*
X2830108Y5689605D02*
X3990108Y5689605D01*
X-213892Y5969605D02*
X750108Y5969605D01*
X-737892Y4848605D02*
X750108Y4848605D01*
X-710892Y4968605D02*
X750108Y4968605D01*
X2830108Y4888605D02*
X4310108Y4888605D01*
X2830108Y4728605D02*
X4340108Y4728605D01*
X-759892Y4728605D02*
X750108Y4728605D01*
X2830108Y5329605D02*
X4172108Y5329605D01*
X1113108Y6849605D02*
X2467108Y6849605D01*
X779108Y6729605D02*
X2801108Y6729605D01*
X407108Y6529605D02*
X750108Y6529605D01*
X2830108Y6129605D02*
X3654108Y6129605D01*
X692108Y6689605D02*
X2888108Y6689605D01*
X-637892Y5209605D02*
X750108Y5209605D01*
X185108Y6369605D02*
X750108Y6369605D01*
X2830108Y4688605D02*
X4346108Y4688605D01*
X1506108Y6929605D02*
X2074108Y6929605D01*
X2830108Y6209605D02*
X3575108Y6209605D01*
X-623892Y5249605D02*
X750108Y5249605D01*
X2830108Y5169605D02*
X4232108Y5169605D01*
X315108Y1523830D02*
X315108Y2023830D01*
X2830108Y6049605D02*
X3727108Y6049605D01*
X-499892Y5529605D02*
X750108Y5529605D01*
X2830108Y4768605D02*
X4333108Y4768605D01*
X-785892Y4488605D02*
X4366108Y4488605D01*
X2830108Y5649605D02*
X4014108Y5649605D01*
X2830108Y6289605D02*
X3489108Y6289605D01*
X-433892Y5649605D02*
X750108Y5649605D01*
X2830108Y5089605D02*
X4258108Y5089605D01*
X2830108Y5008605D02*
X4281108Y5008605D01*
X-752892Y4768605D02*
X750108Y4768605D01*
X2830108Y4568605D02*
X4359108Y4568605D01*
X-689892Y5049605D02*
X750108Y5049605D01*
X2830108Y5049605D02*
X4270108Y5049605D01*
X2830108Y6329605D02*
X3443108Y6329605D01*
X2830108Y5609605D02*
X4037108Y5609605D01*
X-274892Y5889605D02*
X750108Y5889605D01*
X-180892Y6009605D02*
X750108Y6009605D01*
X-477892Y5569605D02*
X750108Y5569605D01*
X2830108Y5129605D02*
X4245108Y5129605D01*
X2830108Y5809605D02*
X3912108Y5809605D01*
X2830108Y6609605D02*
X3041108Y6609605D01*
X-788892Y4408605D02*
X4369108Y4408605D01*
X2830108Y5569605D02*
X4058108Y5569605D01*
X612108Y6649605D02*
X2968108Y6649605D01*
X-384892Y5729605D02*
X750108Y5729605D01*
X2830108Y4808605D02*
X4326108Y4808605D01*
X-651892Y5169605D02*
X750108Y5169605D01*
X-765892Y4688605D02*
X750108Y4688605D01*
X65108Y1773830D02*
X565108Y1773830D01*
X-409892Y5689605D02*
X750108Y5689605D01*
X-778892Y4568605D02*
X750108Y4568605D01*
X-358892Y5769605D02*
X750108Y5769605D01*
X2830108Y6409605D02*
X3344108Y6409605D01*
X-770892Y4648605D02*
X750108Y4648605D01*
X-729892Y4888605D02*
X750108Y4888605D01*
X-73892Y6129605D02*
X750108Y6129605D01*
X471108Y6569605D02*
X750108Y6569605D01*
X91108Y6289605D02*
X750108Y6289605D01*
X-787892Y4448605D02*
X4368108Y4448605D01*
X-146892Y6049605D02*
X750108Y6049605D01*
X-574892Y5369605D02*
X750108Y5369605D01*
X2830108Y6169605D02*
X3616108Y6169605D01*
X2830108Y6249605D02*
X3533108Y6249605D01*
X-782892Y4528605D02*
X4363108Y4528605D01*
X-557892Y5409605D02*
X750108Y5409605D01*
X2830108Y4648605D02*
X4351108Y4648605D01*
X-35892Y6169605D02*
X750108Y6169605D01*
X2830108Y5409605D02*
X4138108Y5409605D01*
X2830108Y5289605D02*
X4188108Y5289605D01*
X-677892Y5089605D02*
X750108Y5089605D01*
X2830108Y6569605D02*
X3109108Y6569605D01*
X2830108Y6529605D02*
X3173108Y6529605D01*
X2830108Y6009605D02*
X3761108Y6009605D01*
X-789892Y4328605D02*
X4370108Y4328605D01*
X2830108Y5889605D02*
X3855108Y5889605D01*
X875108Y6769605D02*
X2705108Y6769605D01*
X-244892Y5929605D02*
X750108Y5929605D01*
X-720892Y4928605D02*
X750108Y4928605D01*
X1272108Y6889605D02*
X2308108Y6889605D01*
X-304892Y5849605D02*
X750108Y5849605D01*
X-774892Y4608605D02*
X750108Y4608605D01*
X2830108Y6489605D02*
X3233108Y6489605D01*
X47108Y6249605D02*
X750108Y6249605D01*
X2830108Y5449605D02*
X4119108Y5449605D01*
X-745892Y4808605D02*
X750108Y4808605D01*
X-664892Y5129605D02*
X750108Y5129605D01*
X2830108Y5969605D02*
X3794108Y5969605D01*
X-591892Y5329605D02*
X750108Y5329605D01*
X2830108Y4928605D02*
X4301108Y4928605D01*
X2830108Y5729605D02*
X3965108Y5729605D01*
X-110892Y6089605D02*
X750108Y6089605D01*
X2830108Y5929605D02*
X3825108Y5929605D01*
X290108Y6449605D02*
X750108Y6449605D01*
X-700892Y5008605D02*
X750108Y5008605D01*
X-519892Y5489605D02*
X750108Y5489605D01*
X-331892Y5809605D02*
X750108Y5809605D01*
X-607892Y5289605D02*
X750108Y5289605D01*
X-456892Y5609605D02*
X750108Y5609605D01*
X5108Y6209605D02*
X750108Y6209605D01*
X-538892Y5449605D02*
X750108Y5449605D01*
X539108Y6609605D02*
X750108Y6609605D01*
X-789892Y4368605D02*
X4370108Y4368605D01*
X985108Y6809605D02*
X2595108Y6809605D01*
X2830108Y4848605D02*
X4318108Y4848605D01*
X2830108Y6449605D02*
X3290108Y6449605D01*
X2830108Y5209605D02*
X4218108Y5209605D01*
X2830108Y5529605D02*
X4080108Y5529605D01*
X2830108Y4608605D02*
X4355108Y4608605D01*
X236108Y6409605D02*
X750108Y6409605D01*
X137108Y6329605D02*
X750108Y6329605D01*
X2830108Y6369605D02*
X3395108Y6369605D01*
X347108Y6489605D02*
X750108Y6489605D01*
X2830108Y5849605D02*
X3885108Y5849605D01*
X2830108Y5369605D02*
X4155108Y5369605D01*
X2830108Y6089605D02*
X3691108Y6089605D01*
X2830108Y5249605D02*
X4204108Y5249605D01*
X2830108Y5489605D02*
X4100108Y5489605D01*
X2830108Y5769605D02*
X3939108Y5769605D01*
X4410108Y4328605D02*
G75*
G03*
X4410108Y4328605I-2620000J0D01*
G01*
%TO.C,C32*%
X22599708Y-34585095D02*
X22599708Y-30700095D01*
X22599708Y-30700095D02*
X20329708Y-30700095D01*
X20329708Y-30700095D02*
X20329708Y-34585095D01*
%TO.C,C1*%
X36735456Y2727305D02*
X37257960Y2727305D01*
X36735456Y4197305D02*
X37257960Y4197305D01*
%TO.C,C17*%
X7349608Y-19714643D02*
X7349608Y-20237147D01*
X5879608Y-19714643D02*
X5879608Y-20237147D01*
%TO.C,R14*%
X14270044Y-27529095D02*
X14724172Y-27529095D01*
X14270044Y-26059095D02*
X14724172Y-26059095D01*
%TO.C,C16*%
X15830656Y-15531595D02*
X16353160Y-15531595D01*
X15830656Y-17001595D02*
X16353160Y-17001595D01*
%TD*%
M02*
