M48
; DRILL file {KiCad (6.0.1-0)} date 2022 June 02, Thursday 12:12:10
; FORMAT={-:-/ absolute / metric / decimal}
; #@! TF.CreationDate,2022-06-02T12:12:10+03:00
; #@! TF.GenerationSoftware,Kicad,Pcbnew,(6.0.1-0)
; #@! TF.FileFunction,MixedPlating,1,2
FMAT,2
METRIC
; #@! TA.AperFunction,Plated,PTH,ViaDrill
T1C0.800
; #@! TA.AperFunction,Plated,PTH,ComponentDrill
T2C0.800
; #@! TA.AperFunction,Plated,PTH,ComponentDrill
T3C0.813
; #@! TA.AperFunction,Plated,PTH,ComponentDrill
T4C1.100
; #@! TA.AperFunction,Plated,PTH,ComponentDrill
T5C1.143
; #@! TA.AperFunction,Plated,PTH,ComponentDrill
T6C1.520
; #@! TA.AperFunction,Plated,PTH,ComponentDrill
T7C2.000
%
G90
G05
T1
X0.958Y-20.881
X1.415Y8.24
X4.674Y-25.79
X9.646Y-1.674
X11.617Y-7.884
X13.49Y-14.774
X14.992Y11.692
X16.897Y-7.899
X18.193Y-26.345
X18.826Y-13.475
X19.28Y-18.143
X20.935Y-0.269
X23.668Y-18.575
X25.105Y5.855
X26.192Y-31.554
X27.294Y-12.063
X28.571Y-28.827
X28.929Y-25.413
X30.845Y-19.897
X31.252Y-29.913
T2
X1.79Y5.579
X1.79Y3.079
X18.565Y10.917
X18.565Y8.417
X29.178Y-31.386
X29.178Y-33.886
T3
X-16.087Y1.932
X-11.755Y-5.274
X-11.755Y-19.774
X-9.255Y-19.774
X-8.217Y-29.391
X-6.755Y-5.274
X-6.755Y-19.774
X1.223Y-8.374
X1.223Y-10.914
X1.223Y-13.454
X1.223Y-15.994
X17.406Y2.015
X29.944Y-9.414
X29.944Y-14.414
X32.646Y2.015
X35.705Y11.963
X35.705Y9.423
X35.705Y-32.937
X35.705Y-35.477
X37.038Y-5.177
X37.038Y-7.717
X37.038Y-10.257
X37.038Y-12.797
X37.038Y-15.337
X38.205Y11.963
X38.205Y9.423
X38.205Y-32.937
X38.205Y-35.477
T4
X-14.717Y-29.391
X-14.717Y-33.891
X-8.217Y-33.891
X-2.034Y-29.391
X-2.034Y-33.891
X4.466Y-29.391
X4.466Y-33.891
T5
X-16.087Y9.552
X-13.547Y9.552
X-11.007Y9.552
X-11.007Y1.932
T6
X25.485Y11.049
X30.565Y11.049
T7
X-14.955Y-12.274
X-3.555Y-12.274
T0
M30
